<svg xmlns="http://www.w3.org/2000/svg" xmlns:xlink="http://www.w3.org/1999/xlink" width="241" height="241" viewBox="0 0 241 241">
  <defs>
    <clipPath id="clip-path">
      <circle id="Elipse_5368" data-name="Elipse 5368" cx="110.636" cy="110.636" r="110.636" fill="none"/>
    </clipPath>
  </defs>
  <g id="Grupo_155607" data-name="Grupo 155607" transform="translate(-1179.007 -758)">
    <g id="Grupo_132821" data-name="Grupo 132821" transform="translate(1179.007 758.334)">
      <rect id="Rectángulo_43932" data-name="Rectángulo 43932" width="241" height="241" transform="translate(0 -0.334)" fill="none"/>
      <g id="Grupo_132821-2" data-name="Grupo 132821" transform="translate(7.625 3.606)">
        <circle id="Elipse_5243" data-name="Elipse 5243" cx="42.82" cy="42.82" r="42.82" fill="#fdb74d" opacity="0.8" style="isolation: isolate"/>
        <g id="Elipse_5250" data-name="Elipse 5250" transform="translate(14.749 51.86)">
          <circle id="Elipse_5364" data-name="Elipse 5364" cx="3.33" cy="3.33" r="3.33" fill="none"/>
          <circle id="Elipse_5365" data-name="Elipse 5365" cx="2.617" cy="2.617" r="2.617" transform="translate(0.714 0.714)" fill="none" stroke="#8c6df2" stroke-width="2.372"/>
        </g>
        <circle id="Elipse_5251" data-name="Elipse 5251" cx="2.141" cy="2.141" r="2.141" transform="translate(39.49 40.441)" fill="#8c6df2"/>
      </g>
      <path id="Trazado_188103" data-name="Trazado 188103" d="M209.318,50.214A85.4,85.4,0,0,1,220.5,65.682c23.54,39.834,14.444,83.87,11.4,97.476-4.917,21.951-8.509,40.5-23.255,55.958-33.5,35.119-100.142,30.572-140.312,1-4.763-3.506-43.642-32.98-47.44-77.65-.092-1.093-.137-1.907-.181-2.619-.421-6.9-2.381-49.657,27.325-83.213A102.788,102.788,0,0,1,71.358,37.179C113.183,11.742,176.212,14.276,209.318,50.214Z" transform="translate(-8.178 -8.09)" fill="#e5e1f1"/>
      <path id="Trazado_139920" data-name="Trazado 139920" d="M37.808,235.332a3.388,3.388,0,0,0-.087.379,2.48,2.48,0,0,0,2.859,2.966,4.553,4.553,0,0,0,3.958-3.54,85.189,85.189,0,0,1,5.6-18.685,101.082,101.082,0,0,1,9.853-17.943l.733-1.075.767-1.055c.507-.706,1.035-1.4,1.567-2.088q1.584-2.077,3.3-4.055c.562-.665,1.158-1.3,1.733-1.955s1.19-1.271,1.782-1.905c.618-.614,1.214-1.241,1.849-1.838s1.249-1.2,1.9-1.774,1.279-1.156,1.939-1.705c.329-.276.652-.558.984-.826l1-.8c.658-.543,1.351-1.027,2.021-1.541.684-.489,1.367-.977,2.056-1.443s1.381-.924,2.085-1.34c.351-.21.7-.431,1.048-.636l1.054-.6c.177-.1.348-.2.529-.3l.549-.281,1.094-.558c.742-.345,1.472-.706,2.219-1.028a78.947,78.947,0,0,1,18.468-5.4c6.336-1.114,12.8-1.711,19.508-2.32,3.357-.308,6.775-.6,10.293-.978,1.754-.18,3.542-.4,5.346-.638.91-.129,1.815-.247,2.737-.391l2.689-.419c6.882-1.087,13.988-2.3,21.343-4a152.765,152.765,0,0,0,22.907-7.091,108.24,108.24,0,0,0,12.063-5.747,93.694,93.694,0,0,0,12.1-7.991c1.976-1.544,3.917-3.2,5.795-4.951.941-.874,1.859-1.78,2.768-2.7.451-.463.889-.91,1.341-1.4s.908-.986,1.345-1.488a76.125,76.125,0,0,0,9.144-12.821c.635-1.125,1.245-2.256,1.811-3.4.3-.6.519-1.067.771-1.578l.725-1.511c.48-1.01.928-2.04,1.366-3.073s.842-2.084,1.259-3.13A80.119,80.119,0,0,0,247.718,87.7a67.547,67.547,0,0,0,1.328-13.21,62.263,62.263,0,0,0-10.315-34.476,79.485,79.485,0,0,0-14.513-16.575,95.677,95.677,0,0,0-8.624-6.7c-1.519-1.044-3.079-2.05-4.718-3.032-.823-.49-1.66-.978-2.549-1.464-.446-.244-.9-.486-1.39-.736l-.772-.383-.439-.2-.269-.119-.406-.165c-13.6-4.756-31.625,3.124-40.246,17.6s-4.58,30.063,9.024,34.819l-.138-.069c-.032-.019-.012-.017-.012-.017l.011-.007c.007-.011.059,0,.09-.006.094.005.189.016.282.03.209.026.453.075.7.123.494.1,1.022.223,1.55.36,1.066.282,2.159.606,3.241.964a57.116,57.116,0,0,1,6.341,2.512A48.6,48.6,0,0,1,196.716,73.7a30.4,30.4,0,0,1,7.2,8.6,22.28,22.28,0,0,1,2.007,4.966,24.561,24.561,0,0,1,.848,5.561,31.438,31.438,0,0,1-.377,6.266c-.106.557-.188,1.112-.3,1.68-.133.57-.238,1.14-.384,1.72l-.432,1.685c-.1.442-.233.889-.362,1.333a24.666,24.666,0,0,1-2.33,5.225c-.122.214-.253.422-.382.633l-.445.674c-.307.451-.623.9-.964,1.349-.675.894-1.413,1.785-2.222,2.67a57.155,57.155,0,0,1-12.844,10.083q-1.942,1.177-4.014,2.268t-4.247,2.124c-2.895,1.375-5.908,2.673-9,3.9-6.191,2.466-12.686,4.655-19.387,6.811l-2.405.77c-.776.25-1.567.482-2.358.727-1.593.468-3.2.931-4.839,1.374-3.27.891-6.632,1.74-10.054,2.588-6.843,1.709-13.964,3.475-21.221,5.9a104.309,104.309,0,0,0-21.638,9.819c-.872.525-1.727,1.1-2.584,1.645-.848.586-1.685,1.141-2.532,1.753l-1.264.906c-.415.308-.82.626-1.229.938-.824.617-1.6,1.28-2.393,1.925a88.959,88.959,0,0,0-8.6,8.343,119.229,119.229,0,0,0-13.48,18.327,149,149,0,0,0-9.758,19.306,184.081,184.081,0,0,0-6.9,19.737Z" transform="translate(-15.008 -3.686)" fill="#fdb74d"/>
      <circle id="Elipse_5247" data-name="Elipse 5247" cx="16.414" cy="16.414" r="16.414" transform="translate(38.244 18.823)" fill="#8c6df2" opacity="0.7" style="isolation: isolate"/>
      <g id="Elipse_5249" data-name="Elipse 5249" transform="translate(44.609 25.287)">
        <circle id="Elipse_5369" data-name="Elipse 5369" cx="6.185" cy="6.185" r="6.185" fill="none"/>
        <circle id="Elipse_5370" data-name="Elipse 5370" cx="5.471" cy="5.471" r="5.471" transform="translate(0.714 0.714)" fill="none" stroke="#fff" stroke-width="2.372"/>
      </g>
      <g id="Elipse_5245" data-name="Elipse 5245" transform="translate(195.286 5.567)">
        <circle id="Elipse_5371" data-name="Elipse 5371" cx="17.842" cy="17.842" r="17.842" fill="none"/>
        <circle id="Elipse_5372" data-name="Elipse 5372" cx="16.89" cy="16.89" r="16.89" transform="translate(0.952 0.952)" fill="none" stroke="#fff" stroke-linecap="round" stroke-width="3.163" stroke-dasharray="2.372 6.326"/>
      </g>
      <g id="Grupo_156411" data-name="Grupo 156411" transform="translate(-10539 10652.249)">
        <path id="Trazado_209372" data-name="Trazado 209372" d="M50.061,96.714,40.644,33.46A17.682,17.682,0,0,1,55.225,13.241l24.029-5.2C88.72,6.632,93.1,15.725,94.541,25.436l9.417,63.254c1.446,9.712-52.45,17.735-53.9,8.024" transform="translate(10597.865 -10621.068)" fill="#782c2b"/>
        <path id="Trazado_209373" data-name="Trazado 209373" d="M13.853,115.527c2.406-5.592,28.4-41.579,34.442-47.68a10.844,10.844,0,0,1,2.623-2.03c.648-.328,5.242-.118,5.48.546,2.584,7.214-.859,31.8-4.49,38.417-4.067,7.413-22.682,27.868-23.926,27.6-6.62-1.447-17.357-9.345-14.129-16.848" transform="translate(10592.019 -10608.644)" fill="#ececec"/>
        <path id="Trazado_209374" data-name="Trazado 209374" d="M123.772,129.323c-.011-1.535-18.458-51.3-22.039-59.105a10.835,10.835,0,0,0-1.768-2.807c-.493-.53-4.882-1.91-5.333-1.368-4.9,5.887-10.111,30.161-8.973,37.623,1.275,8.36,20.642,40.214,21.758,40.827,8.431,4.632,16.525-9.108,16.355-15.169" transform="translate(10607.556 -10608.589)" fill="#ececec"/>
        <path id="Trazado_209375" data-name="Trazado 209375" d="M90.375,69.135c0,6.448-11.962,31.986-18.317,31.986S54.31,75.584,54.31,69.135s8.073-5.306,18.033-5.306,18.032-1.142,18.032,5.306" transform="translate(10600.848 -10609.055)" fill="#f0b79e"/>
        <path id="Trazado_209376" data-name="Trazado 209376" d="M71.813,85.1h0c-6.728,0-14.74-5.04-14.74-12.233l5.64-21.253c0-7.141,18.2-7.141,18.2,0l5.64,21.253c0,7.193-8.012,12.233-14.74,12.233" transform="translate(10601.441 -10612.818)" fill="#f0b79e"/>
        <path id="Trazado_209377" data-name="Trazado 209377" d="M50.914,148.755c.23,1.21-8.143,20.136.193,20.136s55.667-2.354,55.667-2.354c.311-1.21-7.821-16.574-7.592-17.784,0,0,2.8-26.343,3.54-30.8.784-4.739,6.82-18.189,4.272-31.349,0,0,1.611-11.372.861-16.56-5.8-6.264-12.668-7.865-20.728-10.493l1.112,10.811c-1.618,7.58-12.954,16.366-12.954,16.366S63.694,77.587,61.96,69.909l1.01-10.355c-8.06,2.627-14.927,4.228-20.728,10.492-.75,5.188.861,16.56.861,16.56-2.592,10.973,3.489,26.612,4.272,31.349.739,4.456,3.54,30.8,3.54,30.8" transform="translate(10598.209 -10609.958)" fill="#ececec"/>
        <path id="Trazado_209378" data-name="Trazado 209378" d="M99.682,110.895c-1.484,2.225-20.9,3.719-35.55,1.124-4.079-4.078-18.886-12.752-20.554-18.314-.557-2.04-.557-4.265-1.112-6.3-.026-.09-.05-.179-.075-.267.111,9.919,4.27,21.026,4.909,24.889.471,2.849,1.786,14.642,2.673,22.778,9.186,0,20.961.643,21.823-1.582s-2.39-6.842-4.152-11.857c-.372-1.112,1.333-5.232,2.074-5.232,11.626,1.148,23.57,9.021,30.349,17.8.885-8.084,2.124-19.156,2.578-21.9.495-2.987,3.077-9.438,4.28-17.1-1.462,3.394-5.2,12.9-7.243,15.969" transform="translate(10598.283 -10604.025)" fill="#d1d7de"/>
        <path id="Trazado_209379" data-name="Trazado 209379" d="M70.654,85.673c3.821-2.538,8.261-5.278,12.628-3.872,3.406,1.095,2.346,4.366,3.919,7.414-.959-7.205,1.225-14.41.081-21.614a16,16,0,0,0-1.661-5.717,5.435,5.435,0,0,0-4.876-2.9s1.066,9.794.414,11.892-11.83,15.679-10.506,14.8" transform="translate(10604.339 -10610.084)" fill="#f4f4f4"/>
        <path id="Trazado_209380" data-name="Trazado 209380" d="M70.956,85.456c-3.821-2.538-8.428-5.271-12.795-3.866-3.406,1.1-2.346,4.367-3.919,7.416.959-7.205-1.224-14.41-.08-21.614a15.972,15.972,0,0,1,1.66-5.717,5.435,5.435,0,0,1,4.877-2.9s-1.067,9.794-.416,11.892,12,15.672,10.672,14.792" transform="translate(10600.742 -10610.129)" fill="#f4f4f4"/>
        <path id="Trazado_209381" data-name="Trazado 209381" d="M54.052,50.843a19,19,0,0,1-5.419-1.453,9.848,9.848,0,0,1-4.508-4.374c-1.04-2.061-1.283-4.769-.3-6.537s3.114-1.849,4.741-.55c.783.625,6.612,13.1,5.491,12.915" transform="translate(10598.458 -10614.8)" fill="#f0c7ad"/>
        <path id="Trazado_209382" data-name="Trazado 209382" d="M81.172,44.011a28.2,28.2,0,0,0,5.589-4.253,9.912,9.912,0,0,0,2.9-6.255,6.131,6.131,0,0,0-3.265-5.786,4.783,4.783,0,0,0-5.9,2.156c-.577.971-.543,14.916.679,14.139" transform="translate(10606.4 -10616.883)" fill="#f0c7ad"/>
        <path id="Trazado_209383" data-name="Trazado 209383" d="M58,7.011C58.372,6.9,61.919,6,62.3,5.92,73.874,3.564,85.156,2.747,88.04,21.093c0,0,3.44,21.029,3.454,25.265a18.835,18.835,0,0,1-1.587,6.38,40.728,40.728,0,0,1-4.411,8.6c-2.227,3.265-5.1,6.323-9,7.315a15.046,15.046,0,0,1-9.806-.688,36.1,36.1,0,0,1-8.831-5.193,28.345,28.345,0,0,1-5.689-5.5,7.32,7.32,0,0,1-.507-.785c-2.011-3.729-9.033-23.847-9.033-23.847C36.406,15.142,46.707,10.472,58,7.011" transform="translate(10597.932 -10621.758)" fill="#f0c7ad"/>
        <path id="Trazado_209384" data-name="Trazado 209384" d="M75.764,67.877c8.265-2.471,13.127-12.069,13.616-20.345.207-2.831-.391-8.108-1.555-10.543-1.874-3.92-12.182-11.611-18.141-14.2a29.237,29.237,0,0,0-17.456-1.825c-3.717.659-2.547,11.823-9.585,11.7l-.01-.029C36.405,15.141,46.707,10.472,58,7.011,58.372,6.9,61.919,6,62.3,5.919,73.874,3.564,85.156,2.746,88.04,21.093c0,0,3.441,21.029,3.454,25.265a18.828,18.828,0,0,1-1.587,6.379,40.65,40.65,0,0,1-4.411,8.6c-2.227,3.264-5.1,6.323-9,7.315a15.046,15.046,0,0,1-9.806-.688,30.816,30.816,0,0,1-4.086-1.982c6.484,2.755,11.984,2.38,13.158,1.9" transform="translate(10597.932 -10621.759)" fill="#ec9d7a"/>
        <path id="Trazado_209385" data-name="Trazado 209385" d="M94.787,33.256a6.282,6.282,0,0,1-6.388,1.79,16.944,16.944,0,0,1-6.605-3.668c-3.43-2.953-6.651-6.18-10.407-8.7s-8.193-4.338-12.709-4.021a12.27,12.27,0,0,0-9.137,4.988q.241,4.537.48,9.071c.125,2.378-.239,7.12-1.122,9.332s-2.93,4.017-5.3,3.764c0,0-11.9-26.965,2.87-32.548,0,0,1.355-4.5,7.743-8.586C62.6-.691,82.893-4.7,90.466,11.87c5.688,12.451,4.321,21.385,4.321,21.385" transform="translate(10597.569 -10622.767)" fill="#782c2b"/>
        <path id="Trazado_209386" data-name="Trazado 209386" d="M67.6,83.249s-2.351-4.427-4.21-4.521-5.773,4.341-5.773,4.341Z" transform="translate(10601.559 -10605.834)" fill="#f0c7ad"/>
        <path id="Trazado_209387" data-name="Trazado 209387" d="M45.186,94.638l-2.533,3.755,4.52.006,34.318-21.46L79.5,73.178Z" transform="translate(10598.34 -10607.027)" fill="#8c6df2"/>
        <path id="Trazado_209388" data-name="Trazado 209388" d="M44.383,94.165s.067-1.2-.8-1.324l-1.122,1.434Z" transform="translate(10598.299 -10602.798)" fill="#b3b3b3"/>
        <path id="Trazado_209389" data-name="Trazado 209389" d="M56.191,86.877l1.3,2.467L80.008,75.266,78.7,72.8Z" transform="translate(10601.252 -10607.108)" fill="#8c6df2"/>
        <path id="Trazado_209390" data-name="Trazado 209390" d="M76.688,77.071h0a.625.625,0,0,0,.2-.81l-2.3-4.345a.524.524,0,0,0-.746-.216.625.625,0,0,0-.2.81l2.3,4.345a.524.524,0,0,0,.747.216" transform="translate(10604.99 -10607.362)" fill="#8c6df2"/>
        <path id="Trazado_209391" data-name="Trazado 209391" d="M63.767,78.926l8.5-5.08,1.5,1.1.29-.462-1.764-1.3-8.778,5.244Z" transform="translate(10602.828 -10607.024)" fill="#8c6df2"/>
        <path id="Trazado_209392" data-name="Trazado 209392" d="M68.3,100.428s-2.808,3.557-3.913,3.177-6.5-3.727-6.5-3.727-4-3.527-3.078-6.767S68.3,100.428,68.3,100.428" transform="translate(10600.927 -10602.873)" fill="#f0c7ad"/>
        <path id="Trazado_209393" data-name="Trazado 209393" d="M70.07,82.536s-13.811-.766-16.9.368a2.93,2.93,0,0,0-.417,5.472c2,.937,16.4,1.751,19.428,1.756s4.2-6.389-2.115-7.6" transform="translate(10600.148 -10605.069)" fill="#f0c7ad"/>
        <path id="Trazado_209394" data-name="Trazado 209394" d="M70.075,86.867l-.43-.022c-2.358-.118-13.7-.625-16.466.39a2.93,2.93,0,0,0-.417,5.472c2,.937,16.4,1.751,19.428,1.756s4.2-6.389-2.115-7.6" transform="translate(10600.149 -10604.138)" fill="#f0c7ad"/>
        <path id="Trazado_209395" data-name="Trazado 209395" d="M72.213,93.255a5.262,5.262,0,0,1,.678,4.961c-.959,3.122-5.089,2.784-8.1,1.162-8.1-4.365-11.317-7.475-11.317-7.475Z" transform="translate(10600.667 -10603)" fill="#f0c7ad"/>
        <path id="Trazado_209396" data-name="Trazado 209396" d="M12.7,118c-3.362-3.759-1.3-9.1-2.719-13.252A25.83,25.83,0,0,0,5.838,96.8c-1.348-1.667-.2-6,6.153-1.451,1.722,1.233,4.028,8.666,5.538,9.457,8.97,4.7-1.351,17.078-4.829,13.19" transform="translate(10590.313 -10602.692)" fill="#f0c7ad"/>
        <path id="Trazado_209397" data-name="Trazado 209397" d="M24.926,133.541l48.54,1.605c1.208.039,2.033-1.467,1.514-2.761L52.622,76.719a2.389,2.389,0,0,0-2.079-1.606L3.816,73.568C2,73.507.766,75.766,1.545,77.707l21.994,54.764a1.594,1.594,0,0,0,1.386,1.07" transform="translate(10589.447 -10606.943)" fill="#8c6df2"/>
        <path id="Trazado_209398" data-name="Trazado 209398" d="M23.618,133.5l48.54,1.605c1.208.039,2.033-1.467,1.514-2.761L51.314,76.675a2.389,2.389,0,0,0-2.079-1.606L2.508,73.524C.7,73.463-.542,75.722.237,77.663l21.994,54.764a1.594,1.594,0,0,0,1.386,1.07" transform="translate(10589.166 -10606.953)" fill="#5038a1"/>
        <path id="Trazado_209399" data-name="Trazado 209399" d="M44.748,79.17l22.439,48.058L64,127.1Z" transform="translate(10598.791 -10605.738)" fill="#f2f2f2"/>
        <path id="Trazado_209400" data-name="Trazado 209400" d="M12.5,80.282l25.881.855L35.543,74.9,9.662,74.043Z" transform="translate(10591.244 -10606.841)" fill="#ffb27d"/>
        <path id="Trazado_209401" data-name="Trazado 209401" d="M33.8,81.2l.847-1.245-2.61-6.225-1.074,1.232Z" transform="translate(10595.825 -10606.908)" fill="#fedc72"/>
        <path id="Trazado_209402" data-name="Trazado 209402" d="M36.617,73.885l-1.074,1.232-25.88-.855,1.04-1.233Z" transform="translate(10591.244 -10607.06)" fill="#fedc72"/>
        <path id="Trazado_209403" data-name="Trazado 209403" d="M9.334,108.478s-2.712-4.218-1.767-6.591c.4-1.011,6.118-6.118,6.661-6.662s5.71,0,8.837,0,1.968,2.7-1.191,3.03c-1.835.3-5.638.708-5.638.708Z" transform="translate(10590.751 -10602.337)" fill="#f0c7ad"/>
        <path id="Trazado_209404" data-name="Trazado 209404" d="M10.158,111.35s-2.764-4.1-1.767-6.591c.4-1.01,6.118-6.118,6.661-6.662s5.711,0,8.837,0,1.968,2.7-1.191,3.03c-1.835.3-5.638.708-5.638.708Z" transform="translate(10590.924 -10601.72)" fill="#f0c7ad"/>
        <path id="Trazado_209405" data-name="Trazado 209405" d="M11.235,114.956s-2.774-4.815-1.767-6.591c0-1.089,6.118-6.118,6.661-6.662s5.711,0,8.837,0,1.968,2.7-1.191,3.03c-1.835.3-5.638.708-5.638.708Z" transform="translate(10591.155 -10600.944)" fill="#f0c7ad"/>
        <path id="Trazado_209406" data-name="Trazado 209406" d="M11.924,115.56c-1.341-.181-1.749-3.842-1.749-4.8s5.811-5.4,6.328-5.879,5.423,0,8.394,0,1.869,2.379-1.132,2.674c-1.741.265-5.354.626-5.354.626s-5.146,7.561-6.487,7.38" transform="translate(10591.354 -10600.255)" fill="#f0c7ad"/>
        <path id="Trazado_209407" data-name="Trazado 209407" d="M112.659,139.175c-6.03-2.3-13.887-8.716-18.631-12.967-9.288-8.328-34.2-27.257-34.2-27.257s4.44-5.267,7.531-9.009c0,0,49.789,28.717,56.105,35.033,4.6,4.6.439,18.48-10.8,14.2" transform="translate(10602.034 -10603.422)" fill="#f0c7ad"/>
      </g>
    </g>
  </g>
</svg>
