<svg xmlns="http://www.w3.org/2000/svg" width="154.843" height="152.862" viewBox="0 0 154.843 152.862">
  <g id="Grupo_149837" data-name="Grupo 149837" transform="translate(-322.129 -419.138)">
    <g id="Grupo_149836" data-name="Grupo 149836" transform="translate(0 4)">
      <g id="Grupo_80729" data-name="Grupo 80729" transform="translate(331.624 415.138)">
        <circle id="Elipse_4784" data-name="Elipse 4784" cx="64.195" cy="64.195" r="64.195" fill="#8c6df2" opacity="0.25" style="isolation: isolate"/>
      </g>
      <path id="Trazado_115813" data-name="Trazado 115813" d="M4893.41-902.492a100.344,100.344,0,0,1,10.433-6.693,73.762,73.762,0,0,1,11.329-5.1,53.614,53.614,0,0,1,12.328-2.807,37.66,37.66,0,0,1,6.532-.089c.552.052,1.106.1,1.661.177.277.039.555.072.833.117l.833.15c.562.1,1.091.22,1.645.332.538.134,1.086.257,1.62.411a46.639,46.639,0,0,1,11.993,5.455c3.677,2.268,7.042,4.809,10.279,7.243,1.616,1.22,3.211,2.413,4.787,3.537.789.567,1.573,1.107,2.354,1.638.387.257.78.522,1.171.769l1.208.774c3.362,2.139,6.66,4.161,9.954,5.9,1.646.871,3.292,1.664,4.917,2.361q1.223.524,2.433.968c.806.3,1.61.555,2.4.785a24.127,24.127,0,0,0,8.807,1.077,16.249,16.249,0,0,0,1.893-.284c.3-.062.6-.139.9-.217l.435-.128c.131-.046.264-.086.394-.137a12.647,12.647,0,0,0,2.95-1.53c.227-.161.451-.325.666-.5l.833-.648c.29-.224.553-.464.828-.688s.521-.475.782-.706a21.134,21.134,0,0,0,2.633-3,19.416,19.416,0,0,0,3.125-6.726,27.466,27.466,0,0,0,.732-7.839,41.078,41.078,0,0,0-1.355-8.652,44.082,44.082,0,0,0-1.369-4.337c-.262-.706-.542-1.4-.827-2.054-.144-.325-.29-.643-.437-.93-.072-.143-.143-.284-.211-.4a1.363,1.363,0,0,0-.1-.152c-.013-.016-.031-.044-.037-.041h-.007s-.006-.011,0,.014l.025.1a17.257,17.257,0,0,1,10.452-22.056,17.258,17.258,0,0,1,22.056,10.452l.016.046h0l.086.28.054.194.083.317.135.566c.084.363.157.705.227,1.046.138.677.257,1.328.37,1.974.222,1.289.4,2.554.557,3.816.3,2.522.483,5.032.555,7.568a71.869,71.869,0,0,1-1.171,15.424,54.394,54.394,0,0,1-5.29,15.422,47.607,47.607,0,0,1-4.577,7.065,44.226,44.226,0,0,1-5.754,6.071,45.591,45.591,0,0,1-6.561,4.779c-.572.33-1.142.67-1.716.982s-1.152.619-1.734.9l-.871.419c-.3.14-.561.27-.915.43-.667.307-1.344.588-2.032.852a34.552,34.552,0,0,1-8.517,2.1c-.363.044-.729.074-1.1.107s-.707.048-1.064.067c-.7.03-1.409.046-2.108.037a36.531,36.531,0,0,1-4.135-.282,39.734,39.734,0,0,1-7.7-1.78,47.986,47.986,0,0,1-6.795-2.9,73.227,73.227,0,0,1-11.382-7.452c-3.425-2.685-6.561-5.5-9.567-8.269l-1.17-1.085c-.4-.372-.787-.748-1.18-1.122-.766-.752-1.523-1.5-2.249-2.257-1.465-1.506-2.86-3.007-4.237-4.47-2.75-2.929-5.4-5.749-8.212-8.237a38.149,38.149,0,0,0-9.051-6.17c-.407-.194-.824-.366-1.238-.551l-.629-.247-.316-.124c-.106-.039-.211-.07-.316-.1l-.633-.207c-.212-.065-.43-.12-.644-.182-.429-.13-.872-.22-1.312-.326s-.894-.178-1.342-.259c-.455-.063-.907-.15-1.369-.194l-.691-.077c-.231-.025-.463-.037-.7-.056-.463-.04-.932-.056-1.4-.069s-.941-.009-1.414-.015-.946.025-1.421.04c-.475.037-.949.065-1.425.108s-.951.09-1.425.157q-1.427.177-2.845.468c-.473.1-.946.194-1.416.3l-.707.167-.7.194a49.084,49.084,0,0,0-10.822,4.355,48.151,48.151,0,0,0-9.534,6.789,2.042,2.042,0,0,1-2.886-.12,2.042,2.042,0,0,1,.12-2.885h0a1.836,1.836,0,0,1,.174-.143Z" transform="translate(-4570.435 1433.472)" fill="#fdb74d"/>
    </g>
    <g id="Grupo_149835" data-name="Grupo 149835" transform="translate(-4538.018 1022.249)">
      <path id="Trazado_202349" data-name="Trazado 202349" d="M4897.551-533.082l-2.041,0c-1.144-.948-1.144-.948-2.185,0l-2.042-.005a3.985,3.985,0,0,0-2.766-.755c-1.607.023-1.8-.2-1.8-1.844q-.011-15.781,0-31.564,0-9.923,0-19.846c0-.422.007-.845.015-1.267a1.109,1.109,0,0,1,1.256-1.22c.141,0,.281-.013.423-.013q8.971-.008,17.946,0c1.466,0,1.7.247,1.706,1.745.014,6.122,0,12.245.014,18.368,0,.782-.273,1.787.581,2.212.837.417,1.381-.476,1.96-.927,2.055-1.6,4.073-3.244,6.11-4.868,1.527-1.217,1.573-1.217,3.131.029q3.214,2.571,6.428,5.144a4.424,4.424,0,0,0,.772.551c.683.339,1.077.151,1.212-.59a6.966,6.966,0,0,0,.045-1.265q0-8.921,0-17.84c0-.352-.009-.7.007-1.055.054-1.22.289-1.483,1.523-1.5,2.746-.036,5.49-.011,8.235-.013,3.272,0,6.544-.012,9.817.005,1.538.008,1.762.234,1.764,1.792q.015,12.773,0,25.546a4.171,4.171,0,0,1-.088,1.05c-.1.391-.345.678-.75.556a24.193,24.193,0,0,1-4.634-1.344,3.1,3.1,0,0,1-.251-1.746q-.012-8.805,0-17.61a7.227,7.227,0,0,0-.057-1.368c-.08-.416-.17-.891-.729-.86-.488.027-.566.454-.618.849a9.754,9.754,0,0,0-.041,1.264q0,8.647,0,17.295a5.95,5.95,0,0,1-.112,1.675c-.377.746-1.089.529-1.679.52a22.955,22.955,0,0,0-9.742,1.912,24.856,24.856,0,0,0-15.108,18.8c-.079.389.144,1.1-.717.951a2.621,2.621,0,0,0-1.431-.28c-4.219,0-8.44-.011-12.66.009-.632,0-1.6-.167-1.615.719-.013.92.967.717,1.586.72,4.186.025,8.37,0,12.556.03.646.006,1.2-.35,1.831-.3a1.559,1.559,0,0,1,.143,1.217,10.61,10.61,0,0,0,.006,2.622c.176,1.447-.068,1.732-1.571,1.74-3.506.019-7.012,0-10.519.006-1.051,0-2.1.026-3.155-.007A3.7,3.7,0,0,0,4897.551-533.082Z" transform="translate(0.062 0.065)" fill="#8c6df2"/>
      <path id="Trazado_202350" data-name="Trazado 202350" d="M4897.613-533.017c.172-.945.847-1.066,1.655-1.063,5.021.013,10.042-.015,15.062.027.876.008,1.181-.169,1.013-1.087a18.438,18.438,0,0,1,.017-4.2.609.609,0,0,1,.07-.881,30.427,30.427,0,0,1,1.887-6.646,25.4,25.4,0,0,1,23.537-15.337c.455,0,.911,0,1.366,0a2.059,2.059,0,0,1,2.1.209,35.841,35.841,0,0,1,4.976,1.273,1.4,1.4,0,0,0,.139-.952c0-8.832-.01-17.662.026-26.492,0-.9-.256-1.08-1.11-1.075q-9.286.058-18.576,0c-.816,0-1.056.191-1.051,1.035.037,6.614.022,13.229.018,19.843,0,.621.132,1.31-.617,1.649s-1.189-.218-1.669-.6c-2.479-1.968-4.97-3.922-7.4-5.944-.6-.5-.929-.417-1.479.033-2.5,2.05-5.046,4.049-7.574,6.07-.445.355-.877.746-1.509.421-.612-.313-.614-.888-.614-1.459,0-6.649-.017-13.3.021-19.949.005-.868-.195-1.109-1.087-1.1q-9.235.065-18.47,0c-.886-.006-1.183.151-1.181,1.128q.053,26.493,0,52.985c0,.909.278,1.171,1.126,1.066.484-.06.984.015,1.476-.017a1.337,1.337,0,0,1,1.58,1.058,1.243,1.243,0,0,1-1.438,1.07c-1.16-.041-2.322-.034-3.482,0-.951.026-1.348-.442-1.348-1.341,0-.211,0-.421,0-.633v-55.415c0-1.844.144-1.989,1.962-1.989h62.591c1.821,0,1.922.1,1.922,1.9q0,14.355.008,28.71c0,.361-.154.758.223,1.078.742.629,1.152.575,1.672-.279,2.646-4.347,5.308-8.687,7.924-13.053a1.82,1.82,0,0,1,1.867-1.037c1.052.068,2.11.014,3.166.019.7,0,1.171.3,1.175,1.046s-.463,1.049-1.162,1.062a1.389,1.389,0,0,1-.315,0c-2.214-.469-3.43.532-4.482,2.474-1.97,3.639-4.235,7.119-6.407,10.647-.344.559-.437.846.2,1.317a25.307,25.307,0,0,1,4.438,37.251c-.412.489-.426.727.042,1.152.833.755,1.62,1.564,2.386,2.387.386.415.635.377,1-.022a4.049,4.049,0,0,1,1.447-1.2,2.624,2.624,0,0,1,3.026.841q7.525,7.553,15.072,15.082c1.891,1.89,3.823,3.741,5.661,5.683a5.151,5.151,0,0,1-2.413,8.739,4.643,4.643,0,0,1-4.512-1.133c-2.958-2.862-5.844-5.8-8.765-8.7a1.2,1.2,0,0,1-.135-1.624c.449-.659,1.014-.5,1.579-.207a4.435,4.435,0,0,1,1.038.888q3.7,3.692,7.386,7.387a3.046,3.046,0,0,0,1.972,1.115,2.567,2.567,0,0,0,2.487-1.079,2.881,2.881,0,0,0,.1-3.105,6.952,6.952,0,0,0-1.245-1.563q-9.627-9.623-19.251-19.247c-.94-.939-1-.936-1.933-.011q-1.085,1.077-2.164,2.164c-.832.839-.835.847-.021,1.666q2.568,2.58,5.146,5.15a3.66,3.66,0,0,1,.861,1.058c.222.509.334,1.015-.319,1.325a1.3,1.3,0,0,1-1.866-.271c-1.974-2.008-3.978-3.985-5.964-5.981-1.462-1.47-1.5-2.744,0-4.156.679-.641.778-1.044.012-1.671a19.314,19.314,0,0,1-2.093-2.082c-.4-.449-.648-.4-1.09-.025a25.1,25.1,0,0,1-19.133,6.112,21.153,21.153,0,0,1-2.912-.471c-.469-.106-.695-.085-.838.419-.9,3.17-1.816,6.333-2.756,9.591,1.012,0,1.953.01,2.894,0,.735-.011,1.289.259,1.3,1.045s-.535,1.075-1.272,1.072c-1.231-.007-2.463,0-3.694,0-1.582,0-1.912-.462-1.463-2.016.966-3.337,1.909-6.68,2.914-10,.2-.652.113-.88-.547-1.116a23.173,23.173,0,0,1-7.1-4.053c-.513-.43-.786-.448-1.255.066-1.9,2.079-3.864,4.1-5.77,6.168a2.213,2.213,0,0,1-1.843.794c-1.442-.046-2.885-.015-4.328-.012-.761,0-1.372-.253-1.358-1.108.014-.8.6-1.019,1.322-1.009,1.231.017,2.464-.016,3.7.014a1.63,1.63,0,0,0,1.379-.554q2.676-2.918,5.431-5.761c.463-.476.4-.72-.023-1.177a24.765,24.765,0,0,1-6.049-11.521c-.157-.69-.421-.805-1.038-.8-5.244.02-10.487,0-15.731.021C4898.334-531.951,4897.736-532.114,4897.613-533.017Z" transform="translate(0)"/>
      <path id="Trazado_202351" data-name="Trazado 202351" d="M4965.537-506.187c.443-.754.129-1.3-.429-1.853-1.93-1.9-3.818-3.843-5.762-5.729-.563-.546-.711-.9-.041-1.494a34.546,34.546,0,0,0,2.836-2.831c.6-.671.975-.6,1.582.016q7.95,8.02,15.955,15.984c1.541,1.543,3.13,3.043,4.6,4.655a3.009,3.009,0,0,1-1.3,5.071,3.058,3.058,0,0,1-3.16-.944c-2.656-2.666-5.33-5.316-7.976-7.993-.583-.587-1.153-.916-1.939-.423l-1.468-1.416c0-1.409,0-1.409-1.516-1.568Z" transform="translate(2.769 2.731)" fill="#ffe05c"/>
      <path id="Trazado_202361" data-name="Trazado 202361" d="M4893.086-535.089a1.078,1.078,0,0,1,1.079-1.033c.647-.005.947.459,1.106,1.029-.153.578-.411,1.055-1.1,1.052S4893.186-534.47,4893.086-535.089Z" transform="translate(0.3 2.072)" fill="#050607"/>
      <path id="Trazado_202362" data-name="Trazado 202362" d="M4966.637-505.2a1.161,1.161,0,0,1,1.531.066,1.039,1.039,0,0,1-.017,1.5,1.055,1.055,0,0,1-1.441-.032A1.137,1.137,0,0,1,4966.637-505.2Z" transform="translate(3.052 3.223)" fill="#070504"/>
      <path id="Trazado_202363" data-name="Trazado 202363" d="M4942.253-562.26l-2.1-.209q0-10.127-.016-20.254c0-.838.164-1.594,1.1-1.569.871.024,1.025.8,1.024,1.567Q4942.252-572.492,4942.253-562.26Z" transform="translate(2.066 0.264)" fill="#5038a1"/>
      <path id="Trazado_202364" data-name="Trazado 202364" d="M4914.926-542.044l-.071.881c-.179.492-.514.624-1.043.62-4.638-.024-9.276-.019-13.915-.009-.745,0-1.43-.163-1.425-1.018,0-.878.68-1.106,1.478-1.1q7.009.016,14.021,0C4914.437-542.671,4914.924-542.736,4914.926-542.044Z" transform="translate(0.503 1.826)" fill="#5038a1"/>
      <path id="Trazado_202365" data-name="Trazado 202365" d="M4894.025-540.559c-.457,0-.914.012-1.37-.005a.906.906,0,0,1-.956-.911.9.9,0,0,1,.829-1.13,18.781,18.781,0,0,1,3.152-.007,1.006,1.006,0,0,1,.881,1.139c-.042.645-.446.913-1.061.915Q4894.764-540.557,4894.025-540.559Z" transform="translate(0.248 1.826)" fill="#5038a1"/>
      <path id="Trazado_202366" data-name="Trazado 202366" d="M4939.526-514.667a23.222,23.222,0,0,1-23.35-23.3,23.3,23.3,0,0,1,23.21-23.251,23.287,23.287,0,0,1,23.408,23.258A23.279,23.279,0,0,1,4939.526-514.667Z" transform="translate(1.167 1.13)" fill="#ffe05c"/>
      <path id="Trazado_202367" data-name="Trazado 202367" d="M4925.623-570.048l-6.292-5.02c-.22-.175-.44-.351-.662-.524-1.164-.915-1.351-.913-2.538.036q-3.132,2.5-6.262,5.007c-.189.151-.388.293-.578.435-.353-.212-.2-.524-.2-.772-.01-5.8.005-11.61-.024-17.414,0-.75.135-1.027.969-1.02,4.925.044,9.85.022,14.775.022.483,0,.942-.123.938.7-.036,6.051-.021,12.1-.025,18.153A2.253,2.253,0,0,1,4925.623-570.048Z" transform="translate(0.9 0.076)" fill="#ffe05c"/>
      <path id="Trazado_202368" data-name="Trazado 202368" d="M4978.024-499.157a1.27,1.27,0,0,1-.936-.494q-6.98-6.979-13.959-13.956c-.507-.506-.764-1.052-.2-1.649s1.155-.364,1.653.134q7.023,7.008,14.038,14.027a1.1,1.1,0,0,1,.29,1.338A1.019,1.019,0,0,1,4978.024-499.157Z" transform="translate(2.91 2.842)" fill="#8c6df2"/>
      <path id="Trazado_202369" data-name="Trazado 202369" d="M4982.376-496.807a1.043,1.043,0,0,1-1.011.963c-.623.074-2.114-1.393-2.054-2.026a1.021,1.021,0,0,1,1-1.027C4981-498.936,4982.375-497.566,4982.376-496.807Z" transform="translate(3.536 3.469)" fill="#8c6df2"/>
      <path id="Trazado_202370" data-name="Trazado 202370" d="M4956.078-530.2l-.954,1.76c-1.273.345-1.273.345-1.333,1.748a4.779,4.779,0,0,1-1.4,1.511,4.211,4.211,0,0,0-2.222,1.067,17.733,17.733,0,0,1-23.715-1.754,17.769,17.769,0,0,1-.8-23.6,17.429,17.429,0,0,1,12.2-6.325,17.67,17.67,0,0,1,19.044,15.444,16.051,16.051,0,0,1-.716,7.605A3.457,3.457,0,0,0,4956.078-530.2Z" transform="translate(1.369 1.331)" fill="#d2e1f1"/>
      <path id="Trazado_202371" data-name="Trazado 202371" d="M4956.147-530.137a1.379,1.379,0,0,1-.438-1.839,17.43,17.43,0,0,0-13.667-23.366,17.506,17.506,0,0,0-19.94,14.659,17.341,17.341,0,0,0,14.2,19.784,16.862,16.862,0,0,0,14.366-3.878c.563-.465,1.085-.779,1.79-.342.684.884.185,1.455-.491,2.032a19.564,19.564,0,0,1-27.584-2.41c-4.785-5.869-5.966-12.526-3.254-19.588s8.068-11.223,15.541-12.368a19.51,19.51,0,0,1,22.241,18.806,19.619,19.619,0,0,1-1.25,7.538A1.263,1.263,0,0,1,4956.147-530.137Z" transform="translate(1.299 1.263)"/>
      <path id="Trazado_202372" data-name="Trazado 202372" d="M4952.638-527.684a1.112,1.112,0,0,1-.162-1.429c.378-.559.938-.481,1.495-.32.357.476.592.987.179,1.53A1.1,1.1,0,0,1,4952.638-527.684Z" transform="translate(2.523 2.319)" fill="#050404"/>
    </g>
  </g>
</svg>
