<svg xmlns="http://www.w3.org/2000/svg" width="1156.944" height="550.624" viewBox="0 0 1156.944 550.624">
  <g id="Grupo_156541" data-name="Grupo 156541" transform="translate(-221.667 -766.042)">
    <g id="Grupo_149878" data-name="Grupo 149878" transform="translate(-0.362 -41.489)">
      <g id="Grupo_149839" data-name="Grupo 149839" transform="translate(370 824.469)">
        <path id="Trazado_208271" data-name="Trazado 208271" d="M182.809,2190.177l103.846-.057,9.755-45.55-103.846.058Z" transform="translate(-182.735 -2106.186)" fill="#fdb74d" fill-rule="evenodd"/>
        <rect id="Rectángulo_46290" data-name="Rectángulo 46290" width="103.834" height="83.885" transform="translate(0 0.106) rotate(-0.058)" fill="#fff1db"/>
        <rect id="Rectángulo_46291" data-name="Rectángulo 46291" width="51.947" height="83.885" transform="matrix(1, -0.001, 0.001, 1, 51.887, 0.053)" fill="#fed79b"/>
        <g id="Grupo_149838" data-name="Grupo 149838" transform="translate(4.878 33.014)">
          <rect id="Rectángulo_46292" data-name="Rectángulo 46292" width="42.063" height="3.257" fill="#8a6733"/>
          <rect id="Rectángulo_46293" data-name="Rectángulo 46293" width="42.063" height="3.257" transform="translate(0 10.55)" fill="#8a6733"/>
          <rect id="Rectángulo_46294" data-name="Rectángulo 46294" width="42.063" height="3.257" transform="translate(0 21.1)" fill="#8a6733"/>
          <rect id="Rectángulo_46295" data-name="Rectángulo 46295" width="42.063" height="3.257" transform="translate(0 31.65)" fill="#8a6733"/>
          <rect id="Rectángulo_46296" data-name="Rectángulo 46296" width="42.063" height="3.257" transform="translate(0 42.201)" fill="#8a6733"/>
          <path id="Trazado_208272" data-name="Trazado 208272" d="M220.549,2141.022H262.4v24.358H220.549Z" transform="translate(-168.234 -2141.022)" fill="#805a21" fill-rule="evenodd"/>
          <rect id="Rectángulo_46297" data-name="Rectángulo 46297" width="41.848" height="3.257" transform="translate(52.315 31.65)" fill="#805a21"/>
          <rect id="Rectángulo_46298" data-name="Rectángulo 46298" width="41.848" height="3.257" transform="translate(52.315 42.201)" fill="#805a21"/>
        </g>
      </g>
      <g id="Grupo_149840" data-name="Grupo 149840" transform="translate(1103.132 1255.911)">
        <path id="Trazado_208273" data-name="Trazado 208273" d="M868.127,2555.988c6.187-19.965,42.325-15.638,43.134,11.4,4.284-3.019,20.62-2.348,23.253,13.484.768,4.632,2.042,22.361-13.755,22.361H843.64c-14.734,0-16.847-8.122-16.847-15.75,0-9.68,10.257-15.171,19.007-13.454C837.815,2560.912,855.479,2548.638,868.127,2555.988Z" transform="translate(-826.793 -2537.684)" fill="#fdc46d" fill-rule="evenodd"/>
        <path id="Trazado_208274" data-name="Trazado 208274" d="M858.6,2544.3c12.728-3.3,29.855,4.563,30.41,23.079,4.284-3.02,20.62-2.348,23.253,13.484.768,4.632,2.042,22.361-13.755,22.361H858.6Z" transform="translate(-804.537 -2537.683)" fill="#f0af3e" fill-rule="evenodd"/>
        <path id="Trazado_208275" data-name="Trazado 208275" d="M892.282,2551.095c5.258-16.966,35.97-13.289,36.656,9.684,3.639-2.565,17.523-1.994,19.76,11.459.655,3.935,1.736,19-11.688,19H871.473c-12.521,0-14.319-6.9-14.319-13.384,0-8.227,8.717-12.891,16.155-11.433C866.523,2555.28,881.533,2544.849,892.282,2551.095Z" transform="translate(-813.408 -2546.541)" fill="#8e7cc8" fill-rule="evenodd"/>
        <path id="Trazado_208276" data-name="Trazado 208276" d="M884.182,2541.165c10.816-2.8,25.371,3.877,25.842,19.613,3.639-2.565,17.523-1.994,19.76,11.46.655,3.935,1.736,19-11.688,19H884.182Z" transform="translate(-794.493 -2546.54)" fill="#7f6dc6" fill-rule="evenodd"/>
      </g>
      <g id="Grupo_149843" data-name="Grupo 149843" transform="translate(272.667 1251.085)">
        <path id="Trazado_208277" data-name="Trazado 208277" d="M101.294,2564.561l37.858-25.588,37.18,25.044c1.159.781,3.137,2.18,4.527,3.181a2.754,2.754,0,0,1,1.256,2.428v52.707a3.275,3.275,0,0,1-3.266,3.265H99.555a3.274,3.274,0,0,1-3.265-3.265v-52.707a3.232,3.232,0,0,1,.652-1.952C97.567,2566.838,100.308,2565.227,101.294,2564.561Z" transform="translate(-96.29 -2538.973)" fill="#64578f" fill-rule="evenodd"/>
        <path id="Trazado_208278" data-name="Trazado 208278" d="M124.67,2539.013,161.759,2564c1.159.781,3.137,2.181,4.527,3.181a2.754,2.754,0,0,1,1.256,2.428v52.707a3.275,3.275,0,0,1-3.266,3.264H124.67Z" transform="translate(-81.718 -2538.952)" fill="#4e4080" fill-rule="evenodd"/>
        <path id="Trazado_208279" data-name="Trazado 208279" d="M98.832,2542.061h61.99l16.139,13.294v61.8H98.832Z" transform="translate(-94.985 -2537.388)" fill="#fff6ea" fill-rule="evenodd"/>
        <path id="Trazado_208280" data-name="Trazado 208280" d="M124.67,2542.061h22.885l16.139,13.294v61.8H124.67Z" transform="translate(-81.718 -2537.388)" fill="#f5e7d5" fill-rule="evenodd"/>
        <path id="Trazado_208281" data-name="Trazado 208281" d="M166.981,2558.007a3.236,3.236,0,0,1,.575,1.845v52.707a3.321,3.321,0,0,1-.583,1.866l-42.33-28.22Z" transform="translate(-81.731 -2529.199)" fill="#64578f" fill-rule="evenodd"/>
        <path id="Trazado_208282" data-name="Trazado 208282" d="M96.956,2614.516a3.069,3.069,0,0,1-.666-1.957v-52.707a3.236,3.236,0,0,1,.575-1.845l42.337,28.2Z" transform="translate(-96.29 -2529.199)" fill="#8277a4" fill-rule="evenodd"/>
        <path id="Trazado_208283" data-name="Trazado 208283" d="M181.308,2604.858a3.449,3.449,0,0,1-2.683,1.4H99.331a3.179,3.179,0,0,1-2.6-1.312l42.252-28.307Z" transform="translate(-96.066 -2519.633)" fill="#64578f" fill-rule="evenodd"/>
        <path id="Trazado_208284" data-name="Trazado 208284" d="M166.96,2604.849a3.449,3.449,0,0,1-2.683,1.4H124.67v-29.592Z" transform="translate(-81.718 -2519.623)" fill="#4e4080" fill-rule="evenodd"/>
        <path id="Trazado_208285" data-name="Trazado 208285" d="M155.891,2555.363l-16.118.059V2542.1Z" transform="translate(-73.962 -2537.368)" fill="#e8d5bc" fill-rule="evenodd"/>
        <g id="Grupo_149841" data-name="Grupo 149841" transform="translate(11.189 23.514)">
          <rect id="Rectángulo_46299" data-name="Rectángulo 46299" width="63.446" height="3.55" fill="#a390e1"/>
          <rect id="Rectángulo_46300" data-name="Rectángulo 46300" width="63.446" height="3.379" transform="translate(0 7.43)" fill="#a390e1"/>
        </g>
        <g id="Grupo_149842" data-name="Grupo 149842" transform="translate(42.952 23.514)">
          <rect id="Rectángulo_46301" data-name="Rectángulo 46301" width="31.683" height="3.55" fill="#846bd7"/>
          <rect id="Rectángulo_46302" data-name="Rectángulo 46302" width="31.683" height="3.379" transform="translate(0 7.43)" fill="#846bd7"/>
        </g>
      </g>
      <g id="Grupo_149845" data-name="Grupo 149845" transform="translate(1229.667 828.281)">
        <path id="Trazado_208286" data-name="Trazado 208286" d="M959.877,2157.344h15.43v-14.7h-15.43v14.7Zm5.07-1.748v-8.051h5.29v8.051Z" transform="translate(-920.477 -2079.895)" fill="#735ebb" fill-rule="evenodd"/>
        <path id="Trazado_208287" data-name="Trazado 208287" d="M964.975,2157.345h7.714v-14.7h-7.714v4.9h2.644v8.052h-2.644Z" transform="translate(-917.859 -2079.895)" fill="#735ebb" fill-rule="evenodd"/>
        <path id="Trazado_208288" data-name="Trazado 208288" d="M937.844,2101.184h86.232a4.009,4.009,0,0,1,4,4v58.242a4.01,4.01,0,0,1-4,4H937.844a4.012,4.012,0,0,1-4-4v-58.242A4.012,4.012,0,0,1,937.844,2101.184Z" transform="translate(-933.844 -2101.184)" fill="#5c499b" fill-rule="evenodd"/>
        <path id="Trazado_208289" data-name="Trazado 208289" d="M964.975,2101.184h43.116a4.009,4.009,0,0,1,4,4v58.242a4.009,4.009,0,0,1-4,4H964.975Z" transform="translate(-917.859 -2101.184)" fill="#4d3992" fill-rule="evenodd"/>
        <rect id="Rectángulo_46303" data-name="Rectángulo 46303" width="87.852" height="55.794" transform="translate(3.189 3.543)" fill="#8e7cc8"/>
        <rect id="Rectángulo_46304" data-name="Rectángulo 46304" width="43.925" height="55.794" transform="translate(47.116 3.543)" fill="#735ebb"/>
        <rect id="Rectángulo_46305" data-name="Rectángulo 46305" width="28.859" height="3.224" transform="translate(32.685 77.45)" fill="#4d3992"/>
        <rect id="Rectángulo_46306" data-name="Rectángulo 46306" width="14.428" height="3.224" transform="translate(47.116 77.45)" fill="#4d3992"/>
        <g id="Grupo_149844" data-name="Grupo 149844" transform="translate(31.486 10.762)">
          <path id="Trazado_208290" data-name="Trazado 208290" d="M982.234,2111.8a17.2,17.2,0,0,1,4.61,22.074l19.335,13.931c2.9,2.09-1.076,7.3-3.859,5.083l-18.658-14.922a17.189,17.189,0,1,1-1.427-26.167Zm-2.841,3.738a12.494,12.494,0,1,0,2.394,17.505A12.495,12.495,0,0,0,979.393,2115.534Z" transform="translate(-954.648 -2108.294)" fill="#483780" fill-rule="evenodd"/>
          <path id="Trazado_208291" data-name="Trazado 208291" d="M981.045,2111.794a17.194,17.194,0,0,1,4.612,22.074l19.335,13.933c1.394,1,1.2,2.726.315,4L980.6,2133.039a12.493,12.493,0,0,0-19.9-15.111l-3.74-2.839A17.19,17.19,0,0,1,981.045,2111.794Z" transform="translate(-953.46 -2108.294)" fill="#483780" fill-rule="evenodd"/>
        </g>
        <path id="Trazado_208292" data-name="Trazado 208292" d="M985.172,2124.811l.2,0c.478-3.3,5.662-2.643,6,.681h.21c.269-3.532,5.94-3.419,6.028.129l.254.032v-.055c1.011-1.979,3.88-.92,3.908,2.208a164.565,164.565,0,0,1-.906,19.75c-.422,4.242.581,4.783-2.755,7.26l-2.647,15.094h-16.28l2.7-15.41a6.368,6.368,0,0,1-4.171-5.083l-2.025-10.261a2.636,2.636,0,0,1,.7-3.562l2.349-1.551c-.067-2.32.045-.121.045-8.686C978.79,2120.93,985.172,2121.341,985.172,2124.811Z" transform="translate(-912.56 -2090.432)" fill="#fff6ea" fill-rule="evenodd"/>
        <path id="Trazado_208293" data-name="Trazado 208293" d="M998.541,2145.172l-20.624-.088c-.21,4.9-.462,9.621-.749,14.233h21.293C998.52,2154.075,998.549,2149.229,998.541,2145.172Z" transform="translate(-911.598 -2078.642)" fill="#8e7cc8" fill-rule="evenodd"/>
      </g>
      <g id="Grupo_149850" data-name="Grupo 149850" transform="translate(589.96 838.183)">
        <path id="Rectángulo_46307" data-name="Rectángulo 46307" d="M2.565,0h94.91a2.564,2.564,0,0,1,2.564,2.564V68.208a2.564,2.564,0,0,1-2.564,2.564H2.564A2.564,2.564,0,0,1,0,68.208V2.565A2.565,2.565,0,0,1,2.565,0Z" transform="translate(0 0)" fill="#5c499b"/>
        <path id="Trazado_208294" data-name="Trazado 208294" d="M407.041,2114.453h46.138a3.893,3.893,0,0,1,3.881,3.882v63.009a3.893,3.893,0,0,1-3.881,3.882H407.041Z" transform="translate(-357.02 -2114.453)" fill="#4d3992" fill-rule="evenodd"/>
        <rect id="Rectángulo_46308" data-name="Rectángulo 46308" width="83.843" height="58.694" transform="translate(8.099 6.04)" fill="#8e7cc8"/>
        <path id="Trazado_208295" data-name="Trazado 208295" d="M407.041,2177.151l41.946-.037-.052-58.695-41.894.037Z" transform="translate(-357.02 -2112.416)" fill="#735ebb" fill-rule="evenodd"/>
        <g id="Grupo_149846" data-name="Grupo 149846" transform="translate(54.122 11.665)">
          <rect id="Rectángulo_46309" data-name="Rectángulo 46309" width="34.38" height="3.399" fill="#4d3992"/>
          <rect id="Rectángulo_46310" data-name="Rectángulo 46310" width="34.38" height="3.399" transform="translate(0 11.011)" fill="#4d3992"/>
          <rect id="Rectángulo_46311" data-name="Rectángulo 46311" width="34.38" height="3.399" transform="translate(0 22.022)" fill="#4d3992"/>
          <rect id="Rectángulo_46312" data-name="Rectángulo 46312" width="34.38" height="3.398" transform="translate(0 33.033)" fill="#4d3992"/>
          <rect id="Rectángulo_46313" data-name="Rectángulo 46313" width="34.38" height="3.399" transform="translate(0 44.043)" fill="#4d3992"/>
        </g>
        <g id="Grupo_149847" data-name="Grupo 149847" transform="translate(11.539 11.666)">
          <path id="Trazado_208296" data-name="Trazado 208296" d="M415.818,2122.161h-34.2v25.421h34.2Z" transform="translate(-381.615 -2122.161)" fill="#5c499b" fill-rule="evenodd"/>
          <rect id="Rectángulo_46314" data-name="Rectángulo 46314" width="34.204" height="3.398" transform="translate(0 33.032)" fill="#5c499b"/>
          <rect id="Rectángulo_46315" data-name="Rectángulo 46315" width="34.204" height="3.399" transform="translate(0 44.042)" fill="#5c499b"/>
        </g>
        <g id="Grupo_149848" data-name="Grupo 149848" transform="translate(61.089 18.466)">
          <path id="Trazado_208297" data-name="Trazado 208297" d="M419.175,2127.836a3.672,3.672,0,1,1-3.647,3.672A3.659,3.659,0,0,1,419.175,2127.836Z" transform="translate(-413.751 -2126.047)" fill="#fdb74d" fill-rule="evenodd"/>
          <path id="Trazado_208298" data-name="Trazado 208298" d="M419.778,2126.654a5.392,5.392,0,0,1,3.834,1.6h0a5.487,5.487,0,0,1,0,7.72h0a5.4,5.4,0,0,1-7.669,0h0a5.487,5.487,0,0,1,0-7.72h0a5.393,5.393,0,0,1,3.835-1.6Zm3.4,2.034a4.8,4.8,0,0,0-6.806,0,4.866,4.866,0,0,0,0,6.85,4.788,4.788,0,0,0,6.806,0,4.867,4.867,0,0,0,0-6.85Z" transform="translate(-414.354 -2126.654)" fill="#fdb74d" fill-rule="evenodd"/>
        </g>
        <g id="Grupo_149849" data-name="Grupo 149849" transform="translate(61.596 21.57)">
          <path id="Trazado_208299" data-name="Trazado 208299" d="M422.143,2143.063l.153,0a2.326,2.326,0,0,1,2.384-1.839h.192a2.308,2.308,0,0,1,2.394,1.918h.16a2.3,2.3,0,0,1,2.4-1.961h.192a2.287,2.287,0,0,1,2.4,2.06l.192.023v-.041a1.662,1.662,0,0,1,1.757-1.537h.139a1.665,1.665,0,0,1,1.757,1.537v7.384l0,.1.148,8.727c.038,2.214-1.48,4.468-3.271,5.961l-1.217,1.016-2,11.41H417.616l2.043-11.651a4.814,4.814,0,0,1-3.154-3.842l-1.53-7.758a2.068,2.068,0,0,1,.531-2.692l1.689-1.349-.061-3.41c0-.135,0-.268.008-.4v-15.616a2.411,2.411,0,0,1,2.4-2.4h.191a2.411,2.411,0,0,1,2.4,2.4Z" transform="translate(-414.689 -2128.705)" fill="#fff6ea" fill-rule="evenodd"/>
          <path id="Trazado_208300" data-name="Trazado 208300" d="M432.256,2154.65l-15.593-.062c-.159,3.428-.348,6.726-.568,9.948h16.1C432.239,2160.874,432.26,2157.486,432.256,2154.65Z" transform="translate(-413.967 -2115.415)" fill="#ffc258" fill-rule="evenodd"/>
        </g>
      </g>
      <g id="Grupo_149861" data-name="Grupo 149861" transform="translate(405.667 1243)">
        <g id="Grupo_149858" data-name="Grupo 149858" transform="translate(57.057 5)">
          <g id="Grupo_149851" data-name="Grupo 149851" transform="translate(51.661)">
            <path id="Trazado_208301" data-name="Trazado 208301" d="M314.845,2564.715c9.536-8.765,14.84-12.146,25.41-18.885l1.023-.652.693,1.091-1.022.651c-10.5,6.692-15.763,10.052-25.227,18.749Z" transform="translate(-314.845 -2542.649)" fill="#f89508" fill-rule="evenodd"/>
            <ellipse id="Elipse_6432" data-name="Elipse 6432" cx="2.434" cy="2.434" rx="2.434" ry="2.434" transform="translate(25.318)" fill="#f89508"/>
          </g>
          <g id="Grupo_149852" data-name="Grupo 149852" transform="translate(21.557)">
            <path id="Trazado_208302" data-name="Trazado 208302" d="M322.994,2565.669c-9.464-8.7-14.732-12.057-25.227-18.749l-1.023-.651.695-1.091,1.023.652c10.569,6.74,15.872,10.121,25.41,18.885Z" transform="translate(-294.035 -2542.649)" fill="#f89508" fill-rule="evenodd"/>
            <ellipse id="Elipse_6433" data-name="Elipse 6433" cx="2.434" cy="2.434" rx="2.434" ry="2.434" fill="#f89508"/>
          </g>
          <g id="Grupo_149853" data-name="Grupo 149853" transform="translate(22.399 92.401)">
            <path id="Trazado_208303" data-name="Trazado 208303" d="M326.7,2604.874h0a2.01,2.01,0,0,1,2.768.608l8.79,13.75a2.012,2.012,0,0,1-.608,2.769h0a2.011,2.011,0,0,1-2.768-.609l-8.792-13.75A2.009,2.009,0,0,1,326.7,2604.874Z" transform="translate(-279.968 -2604.559)" fill="#b1761c" fill-rule="evenodd"/>
            <path id="Trazado_208304" data-name="Trazado 208304" d="M307.383,2604.874h0a2.01,2.01,0,0,0-2.768.608l-8.79,13.75a2.011,2.011,0,0,0,.608,2.769h0a2.011,2.011,0,0,0,2.768-.609l8.792-13.75A2.009,2.009,0,0,0,307.383,2604.874Z" transform="translate(-295.51 -2604.559)" fill="#b7812e" fill-rule="evenodd"/>
          </g>
          <path id="Trazado_208305" data-name="Trazado 208305" d="M284.581,2631.59l95.723-.083a4,4,0,0,0,3.811-4.148l-.053-65.609a4,4,0,0,0-3.818-4.143l-95.721.083a4,4,0,0,0-3.811,4.148l.051,65.609A4,4,0,0,0,284.581,2631.59Z" transform="translate(-280.711 -2536.268)" fill="#fecf39" fill-rule="evenodd"/>
          <path id="Trazado_208306" data-name="Trazado 208306" d="M314.873,2631.549l47.889-.042a4,4,0,0,0,3.811-4.148l-.053-65.609a4,4,0,0,0-3.818-4.143l-47.829.041Z" transform="translate(-263.17 -2536.268)" fill="#ddb133" fill-rule="evenodd"/>
          <rect id="Rectángulo_46316" data-name="Rectángulo 46316" width="78.838" height="55.19" transform="translate(7.413 30.736)" fill="#bd8c40"/>
          <path id="Trazado_208307" data-name="Trazado 208307" d="M314.873,2619.013l34.572-.03-.049-55.19-34.523.03Z" transform="translate(-263.17 -2533.092)" fill="#b1761c" fill-rule="evenodd"/>
          <g id="Grupo_149857" data-name="Grupo 149857" transform="translate(90.745 40.442)">
            <path id="Trazado_208308" data-name="Trazado 208308" d="M345.279,2589.644a4.562,4.562,0,1,1-4.56,4.562A4.563,4.563,0,0,1,345.279,2589.644Z" transform="translate(-340.643 -2560.259)" fill="#fecf39" fill-rule="evenodd"/>
            <g id="Grupo_149854" data-name="Grupo 149854">
              <rect id="Rectángulo_46317" data-name="Rectángulo 46317" width="3.615" height="3.838" fill="#fecf39"/>
              <rect id="Rectángulo_46318" data-name="Rectángulo 46318" width="3.614" height="3.838" transform="translate(5.763)" fill="#fecf39"/>
            </g>
            <g id="Grupo_149855" data-name="Grupo 149855" transform="translate(0 8.111)">
              <rect id="Rectángulo_46319" data-name="Rectángulo 46319" width="3.615" height="3.838" fill="#fecf39"/>
              <rect id="Rectángulo_46320" data-name="Rectángulo 46320" width="3.614" height="3.838" transform="translate(5.763)" fill="#fecf39"/>
            </g>
            <g id="Grupo_149856" data-name="Grupo 149856" transform="translate(0 16.718)">
              <rect id="Rectángulo_46321" data-name="Rectángulo 46321" width="3.615" height="3.838" fill="#fecf39"/>
              <rect id="Rectángulo_46322" data-name="Rectángulo 46322" width="3.614" height="3.838" transform="translate(5.763)" fill="#fecf39"/>
            </g>
          </g>
        </g>
        <path id="Rectángulo_46323" data-name="Rectángulo 46323" d="M1.264,0H6.912A1.264,1.264,0,0,1,8.176,1.264V6.018A1.263,1.263,0,0,1,6.913,7.281H1.264A1.264,1.264,0,0,1,0,6.017V1.264A1.264,1.264,0,0,1,1.264,0Z" transform="translate(128.224 63.674)" fill="#a48df3"/>
        <g id="Grupo_149859" data-name="Grupo 149859" transform="translate(128.095 99.557)">
          <path id="Rectángulo_46324" data-name="Rectángulo 46324" d="M1.263,0h5.65A1.264,1.264,0,0,1,8.177,1.264V6.017A1.264,1.264,0,0,1,6.913,7.281H1.264A1.264,1.264,0,0,1,0,6.017V1.263A1.263,1.263,0,0,1,1.263,0Z" transform="translate(0 0)" fill="#a48df3"/>
          <path id="Rectángulo_46325" data-name="Rectángulo 46325" d="M1.263,0h5.65A1.264,1.264,0,0,1,8.176,1.264V6.017A1.264,1.264,0,0,1,6.912,7.281H1.264A1.264,1.264,0,0,1,0,6.017V1.263A1.263,1.263,0,0,1,1.263,0Z" transform="translate(49.568 0)" fill="#9479f1"/>
        </g>
        <rect id="Rectángulo_46326" data-name="Rectángulo 46326" width="68.475" height="39.348" rx="3.858" transform="translate(122.73 65.59)" fill="#6c5aab"/>
        <path id="Trazado_208309" data-name="Trazado 208309" d="M278.671,2586.379H309.2a3.715,3.715,0,0,1,3.7,3.7v31.939a3.716,3.716,0,0,1-3.7,3.705H278.671Z" transform="translate(-121.702 -2520.79)" fill="#493296" fill-rule="evenodd"/>
        <path id="Trazado_208310" data-name="Trazado 208310" d="M246.717,2586.379h61.066a3.715,3.715,0,0,1,3.7,3.7v.384H243.012v-.384a3.716,3.716,0,0,1,3.705-3.7Zm64.77,31.811v3.832a3.716,3.716,0,0,1-3.7,3.705H246.717a3.717,3.717,0,0,1-3.705-3.705v-3.832Z" transform="translate(-120.282 -2520.79)" fill="#bcaaf6" fill-rule="evenodd"/>
        <path id="Trazado_208311" data-name="Trazado 208311" d="M278.671,2586.379H309.2a3.715,3.715,0,0,1,3.7,3.7v.384H278.671v-4.088Zm34.236,31.811v3.832a3.716,3.716,0,0,1-3.7,3.705H278.671v-7.537Z" transform="translate(-121.702 -2520.79)" fill="#a48df3" fill-rule="evenodd"/>
        <path id="Trazado_208312" data-name="Trazado 208312" d="M262.731,2589.173a16.991,16.991,0,1,1-16.991,16.99A16.991,16.991,0,0,1,262.731,2589.173Z" transform="translate(-120.391 -2520.901)" fill="#a48df3" fill-rule="evenodd"/>
        <ellipse id="Elipse_6434" data-name="Elipse 6434" cx="14.755" cy="14.755" rx="14.755" ry="14.755" transform="translate(127.585 70.508)" fill="#fff6ea"/>
        <path id="Trazado_208313" data-name="Trazado 208313" d="M263.264,2602.545a4.152,4.152,0,1,1-4.152,4.151A4.152,4.152,0,0,1,263.264,2602.545Z" transform="translate(-120.923 -2521.433)" fill="#a48df3" fill-rule="evenodd"/>
        <path id="Rectángulo_46327" data-name="Rectángulo 46327" d="M1.285,0H24.393a1.286,1.286,0,0,1,1.286,1.286V8.452a1.285,1.285,0,0,1-1.285,1.285H1.285A1.285,1.285,0,0,1,0,8.452V1.285A1.285,1.285,0,0,1,1.285,0Z" transform="translate(161.567 71.183)" fill="#6c5aab"/>
        <path id="Trazado_208314" data-name="Trazado 208314" d="M285.6,2595.83l.964-.164v4.474h1.587v-5.977h-1.57l-.981.663v1Zm3.646,2.741a1.413,1.413,0,0,0,1.579,1.568h1.34a1.411,1.411,0,0,0,1.521-1.568v-2.84c0-.848-.326-1.569-1.512-1.569h-1.34a1.463,1.463,0,0,0-1.587,1.65v2.759Zm1.587-.336v-2.177c0-.105-.016-.472.408-.472h.467c.221,0,.392.1.392.472v2.186c0,.44-.187.472-.458.472H291.3c-.181,0-.466-.024-.466-.481Zm3.973,1.717a.182.182,0,0,0,.2.188h.924c.114,0,.2-.041.2-.187v-.957a.179.179,0,0,0-.2-.2H295a.183.183,0,0,0-.2.2v.957Zm0-2.985a.183.183,0,0,0,.2.188h.924c.114,0,.2-.04.2-.188v-.956a.178.178,0,0,0-.2-.2H295a.183.183,0,0,0-.2.2v.956Zm2.436,1.6a1.413,1.413,0,0,0,1.578,1.568h1.341a1.411,1.411,0,0,0,1.521-1.568v-2.84c0-.848-.327-1.569-1.512-1.569h-1.341a1.462,1.462,0,0,0-1.586,1.65v2.759Zm1.586-.336v-2.177a.4.4,0,0,1,.409-.472h.466c.221,0,.393.1.393.472v2.186c0,.44-.188.472-.458.472h-.344c-.18,0-.466-.024-.466-.481Zm3.9.336a1.413,1.413,0,0,0,1.579,1.568h1.34a1.411,1.411,0,0,0,1.521-1.568v-2.84c0-.848-.327-1.569-1.512-1.569h-1.34a1.463,1.463,0,0,0-1.587,1.65v2.759Zm1.587-.336v-2.177c0-.105-.016-.472.408-.472h.467c.221,0,.392.1.392.472v2.186c0,.44-.187.472-.458.472h-.343C304.6,2598.716,304.315,2598.692,304.315,2598.235Z" transform="translate(-121.978 -2521.099)" fill="#a48df3" fill-rule="evenodd"/>
        <ellipse id="Elipse_6435" data-name="Elipse 6435" cx="3.673" cy="3.673" rx="3.673" ry="3.673" transform="translate(161.567 85.328)" fill="#a48df3"/>
        <path id="Trazado_208315" data-name="Trazado 208315" d="M296.679,2606.736a3.672,3.672,0,1,1-3.673,3.672A3.672,3.672,0,0,1,296.679,2606.736Z" transform="translate(-122.273 -2521.6)" fill="#a48df3" fill-rule="evenodd"/>
        <path id="Trazado_208316" data-name="Trazado 208316" d="M306.225,2606.736a3.672,3.672,0,1,1-3.672,3.672A3.673,3.673,0,0,1,306.225,2606.736Z" transform="translate(-122.653 -2521.6)" fill="#a48df3" fill-rule="evenodd"/>
        <g id="Grupo_149860" data-name="Grupo 149860" transform="translate(135.13 51.082)">
          <path id="Trazado_208317" data-name="Trazado 208317" d="M273.892,2572.463l.375.554-17.731,12.353-.611-1.074Z" transform="translate(-255.927 -2571.317)" fill="#a48df3" fill-rule="evenodd"/>
          <path id="Trazado_208318" data-name="Trazado 208318" d="M276.026,2571.852a1.324,1.324,0,1,0-.353,1.839A1.324,1.324,0,0,0,276.026,2571.852Z" transform="translate(-256.63 -2571.27)" fill="#6c5aab" fill-rule="evenodd"/>
        </g>
      </g>
      <g id="Grupo_149864" data-name="Grupo 149864" transform="translate(804.882 807.531)">
        <path id="Trazado_208319" data-name="Trazado 208319" d="M622.666,2146.206c1.417,3.753,11.092,7.31,15.393,7.122,11.958-.519,14.6.99,15.121,11.82.021.46.048,1.809.077,3.664A58.488,58.488,0,0,1,632.7,2182.93H588.716a58.476,58.476,0,0,1-19.1-12.621c0-2.332,0-4.064.018-4.569.452-11.368,2.972-12.94,15.145-12.412,3.75.164,13.149-4.313,14.172-7.122a21.079,21.079,0,0,0,.427-10.287l11.433.221,11.433-.221A20.7,20.7,0,0,0,622.666,2146.206Z" transform="translate(-565.64 -2086.003)" fill="#fdb74d" fill-rule="evenodd"/>
        <path id="Trazado_208320" data-name="Trazado 208320" d="M587.733,2144.131l13.733,1.471,13.906-1.56-1.284,34.719H589.16Z" transform="translate(-556.334 -2081.832)" fill="#b6a1ff" fill-rule="evenodd"/>
        <g id="Grupo_149862" data-name="Grupo 149862" transform="translate(25.684 27.404)">
          <path id="Trazado_208321" data-name="Trazado 208321" d="M590.1,2134.534l.66-7.885a18.08,18.08,0,0,1-2.621-2.859c-1.675-2.6-2.727-3.2-3.747-2.441-.413.309-.558,1.283-.316,2.51.422,2.14,1.772,5.333,2.2,7.208C586.613,2132.576,588.586,2137.743,590.1,2134.534Z" transform="translate(-583.957 -2121.044)" fill="#ffdba7" fill-rule="evenodd"/>
          <path id="Trazado_208322" data-name="Trazado 208322" d="M605.711,2134.534l-.66-7.885a18.058,18.058,0,0,0,2.62-2.859c1.677-2.6,2.729-3.2,3.747-2.441.415.309.56,1.283.318,2.51-.422,2.14-1.774,5.333-2.2,7.208C609.2,2132.576,607.224,2137.743,605.711,2134.534Z" transform="translate(-573.126 -2121.044)" fill="#ffdba7" fill-rule="evenodd"/>
        </g>
        <path id="Trazado_208323" data-name="Trazado 208323" d="M588.891,2147.3c1.064.274,1.872,6.824,5.839,5.641,2-4.139,4-7.578,6.976-8.68,2.081-.77,3.478-.714,5.187-2.066,1.352-1.069,3.063-3.423,5.158-4.919a10.269,10.269,0,0,1,.291-1.356l-11.433.221-11.433-.221C589.773,2137.258,590.479,2143.238,588.891,2147.3Z" transform="translate(-555.74 -2086.003)" fill="#eebe69" fill-rule="evenodd"/>
        <path id="Trazado_208324" data-name="Trazado 208324" d="M602.456,2157.448c-.065.006-.129.006-.194.006-2.376.017-3.558-.023-4.848-.567-1.249-.531-1.854-1.757-3.57-3.41-1.46-1.406-4.08-2.84-4.719-4.372-.875-2.1-.531-4.41-1.076-7.667-.434-2.594-1.654-4.9-1.8-7.5-.15-2.808.3-5.632.2-8.8a41.069,41.069,0,0,1,.2-7.843,9.228,9.228,0,0,1,3.035-5.621h0v-.006a15.59,15.59,0,0,1,3.336-2.241l.041-.017c.079-.036.161-.075.241-.118.045-.021.089-.041.136-.066.062-.03.129-.061.191-.086s.127-.057.189-.083.139-.061.206-.088.118-.056.182-.082c.086-.036.172-.073.262-.1.041-.015.083-.036.125-.05.126-.053.259-.1.389-.146l0,0a21.762,21.762,0,0,1,10.448-.991,17.761,17.761,0,0,1,9.215,4.054,9.222,9.222,0,0,1,3.021,5.6,40.871,40.871,0,0,1,.215,7.814c-.091,3.165.368,5.975.219,8.774-.138,2.586-1.356,4.891-1.78,7.481-.533,3.249-.192,5.544-1.057,7.65-.637,1.538-3.237,2.989-4.687,4.41-1.71,1.672-2.311,2.9-3.552,3.451A10.77,10.77,0,0,1,602.456,2157.448Z" transform="translate(-557.111 -2100.67)" fill="#ffdba7" fill-rule="evenodd"/>
        <g id="Grupo_149863" data-name="Grupo 149863" transform="translate(31.093 57.311)">
          <path id="Trazado_208325" data-name="Trazado 208325" d="M608.119,2140.8a6.134,6.134,0,0,0,2.676,4.725l-6.867,11.725-7.266-10.165C600.275,2145.1,606.711,2142.619,608.119,2140.8Z" transform="translate(-582.842 -2140.805)" fill="#d2c4ff" fill-rule="evenodd"/>
          <path id="Trazado_208326" data-name="Trazado 208326" d="M590.205,2140.8a6.136,6.136,0,0,1-2.674,4.725l6.865,11.725,7.266-10.165C598.05,2145.1,591.613,2142.619,590.205,2140.8Z" transform="translate(-587.531 -2140.805)" fill="#d2c4ff" fill-rule="evenodd"/>
        </g>
        <path id="Trazado_208327" data-name="Trazado 208327" d="M609.083,2143.937c3.088,2.607,11.1,5.442,15.27,5.274,11.946-.484,15.224.793,16.059,9.739.035.36.05,14.625.053,19.863H599.394C602.394,2167.6,606.429,2151.807,609.083,2143.937Z" transform="translate(-550.347 -2081.885)" fill="#5038a1" fill-rule="evenodd"/>
        <path id="Trazado_208328" data-name="Trazado 208328" d="M598.387,2143.937c-3.088,2.607-11.1,5.442-15.269,5.274-11.946-.484-15.224.793-16.061,9.739-.033.354-.055,14.655-.07,19.863H608.11C605.075,2167.485,601,2151.689,598.387,2143.937Z" transform="translate(-566.987 -2081.885)" fill="#5038a1" fill-rule="evenodd"/>
        <path id="Trazado_208329" data-name="Trazado 208329" d="M598.5,2145.286l3.567,5.261-.089,1.337-2.943,2.986,3.3,5.307-1.107,17.955h-5.973l-1.242-17.98,3.3-5.305-2.942-2.988-.089-1.337,3.555-5.256Z" transform="translate(-553.108 -2081.203)" fill="#e1d9ff" fill-rule="evenodd"/>
        <path id="Trazado_208330" data-name="Trazado 208330" d="M597.091,2145.282l3.567,5.262-.089,1.337-2.943,2.987,3.3,5.306-1.107,17.955h-3.053v-32.856Z" transform="translate(-551.696 -2081.199)" fill="#d2c4ff" fill-rule="evenodd"/>
        <path id="Trazado_208331" data-name="Trazado 208331" d="M609.067,2143.937a24.523,24.523,0,0,0,7.029,3.609l-.142.106.356,14.979-6.419-.712,3.744,4.993-5.212,11.9h-9C602.417,2167.564,606.425,2151.768,609.067,2143.937Z" transform="translate(-550.331 -2081.885)" fill="#6954ae" fill-rule="evenodd"/>
        <path id="Trazado_208332" data-name="Trazado 208332" d="M590.191,2143.937a24.527,24.527,0,0,1-7.029,3.609l.142.106-.356,14.979,6.42-.712-3.746,4.993,5.659,11.9h8.569C596.84,2167.5,592.812,2151.707,590.191,2143.937Z" transform="translate(-558.791 -2081.885)" fill="#6954ae" fill-rule="evenodd"/>
        <path id="Trazado_208333" data-name="Trazado 208333" d="M591.237,2118.352c-1.111,1.329-3.33,9.326-2.954,18.048-3.758-13.634-5.777-23.367,2.379-29.5,10.708-8.046,24.02-1.663,24.683.213,7.864,4.345,5.131,16.574,2.768,27.374-.076-5.417-1.214-12.141-3.93-16.863-.648-.625-1.388-1-1.978-.754C587.6,2127.2,592.216,2117.178,591.237,2118.352Z" transform="translate(-557.736 -2102.938)" fill="#ec9801" fill-rule="evenodd"/>
      </g>
      <g id="Grupo_149871" data-name="Grupo 149871" transform="translate(1276.149 1115.445)">
        <g id="Grupo_149867" data-name="Grupo 149867" transform="translate(16.636 25.015)">
          <path id="Trazado_208334" data-name="Trazado 208334" d="M1017.192,2424.789l27.928,22.345v39.757H988.6v-39.2Z" transform="translate(-982.087 -2414.808)" fill="#d2c4ff" fill-rule="evenodd"/>
          <g id="Grupo_149865" data-name="Grupo 149865" transform="translate(38.312 41.262)">
            <rect id="Rectángulo_46328" data-name="Rectángulo 46328" width="16.201" height="16.201" fill="#3a00ff"/>
            <rect id="Rectángulo_46329" data-name="Rectángulo 46329" width="14.451" height="14.45" transform="translate(0.876 0.876)" fill="#4e1aff"/>
            <rect id="Rectángulo_46330" data-name="Rectángulo 46330" width="1.04" height="15.365" transform="translate(7.58 0.418)" fill="#3a00ff"/>
          </g>
          <path id="Trazado_208335" data-name="Trazado 208335" d="M1045.12,2454.468l-28.257-22.249L988.6,2454.468v-6.775l28.588-22.9,27.928,22.345Z" transform="translate(-982.087 -2414.808)" fill="#b6a1ff" fill-rule="evenodd"/>
          <path id="Trazado_208336" data-name="Trazado 208336" d="M984.3,2445.574l34.775-27.38,34.775,27.38v12.664l-34.775-27.38-34.775,27.38Z" transform="translate(-984.298 -2418.194)" fill="#6954ae" fill-rule="evenodd"/>
          <g id="Grupo_149866" data-name="Grupo 149866" transform="translate(15.037 41.262)">
            <rect id="Rectángulo_46331" data-name="Rectángulo 46331" width="16.199" height="16.201" fill="#3a00ff"/>
            <rect id="Rectángulo_46332" data-name="Rectángulo 46332" width="14.451" height="14.45" transform="translate(0.874 0.876)" fill="#4e1aff"/>
            <rect id="Rectángulo_46333" data-name="Rectángulo 46333" width="1.042" height="15.365" transform="translate(7.579 0.418)" fill="#3a00ff"/>
          </g>
        </g>
        <g id="Grupo_149870" data-name="Grupo 149870">
          <g id="Grupo_149868" data-name="Grupo 149868" transform="translate(51.395)">
            <path id="Trazado_208337" data-name="Trazado 208337" d="M1007.264,2401.666a118.5,118.5,0,0,0,14.939,5.279c6.446,4.056,10.7,6.95,17.425,10.543,2.531,4.973,5.467,10.556,8.286,15.407,2.317,3.988,4.548,7.278,6.461,11.094.953,1.9,1.488,4.206,2.472,6.811q.926,2.446,1.846,4.893l-10.8,14.213c-.958-6.844-1.955-12.975-3.419-19.764-12.134-4.428-13.146-4.775-19.273-16.224-2.26-3.4-11.925-8.451-8.932-11.394,2.323-2.284,5.685,1.884,9.456,4.966,3.153,2.21,5.438,5.48,5.7.778.174-3.207-1.448-4.493-3.67-8.695-3.561-2.585-5.913-3.849-9.088-8.27C1010.314,2407.906,1007.518,2406.461,1007.264,2401.666Z" transform="translate(-1007.264 -2401.666)" fill="#ffdba7" fill-rule="evenodd"/>
            <path id="Rectángulo_46334" data-name="Rectángulo 46334" d="M.708,0h1.95a.708.708,0,0,1,.708.708V3.58a.709.709,0,0,1-.709.709H.708A.708.708,0,0,1,0,3.581V.708A.708.708,0,0,1,.708,0Z" transform="matrix(0.583, -0.812, 0.812, 0.583, 8.616, 22.924)" fill="#ffefd9"/>
          </g>
          <g id="Grupo_149869" data-name="Grupo 149869">
            <path id="Trazado_208338" data-name="Trazado 208338" d="M1024.734,2401.666a118.144,118.144,0,0,1-14.936,5.279c-6.448,4.056-10.708,6.95-17.426,10.544-2.531,4.971-5.467,10.556-8.285,15.406-2.32,3.988-4.55,7.278-6.463,11.094-.953,1.9-1.488,4.206-2.473,6.811q-.924,2.446-1.845,4.893l10.8,14.213c.957-6.842,1.953-12.975,3.418-19.764,12.132-4.427,13.146-4.775,19.271-16.223,2.263-3.4,11.928-8.453,8.934-11.4-2.323-2.284-5.685,1.886-9.455,4.966-3.154,2.21-5.441,5.48-5.7.778-.173-3.207,1.45-4.492,3.67-8.695,3.561-2.585,5.915-3.847,9.092-8.27C1021.686,2407.906,1024.481,2406.461,1024.734,2401.666Z" transform="translate(-973.306 -2401.666)" fill="#ffdba7" fill-rule="evenodd"/>
            <path id="Rectángulo_46335" data-name="Rectángulo 46335" d="M.708,0H3.581A.709.709,0,0,1,4.29.709V2.657a.709.709,0,0,1-.709.709H.709A.709.709,0,0,1,0,2.658V.708A.708.708,0,0,1,.708,0Z" transform="matrix(0.812, -0.584, 0.584, 0.812, 37.366, 22.693)" fill="#ffefd9"/>
          </g>
        </g>
      </g>
      <g id="Grupo_149874" data-name="Grupo 149874" transform="translate(895.796 1248)">
        <path id="Trazado_208339" data-name="Trazado 208339" d="M667.909,2578.408c3.154-2.091,5.574-3.995,8.653-6.132,8.065-5.606,11.025-9.788,16.19-11.635,5.2-1.859,12.587.323,20.712.419,5.35.064,16.213-2.967,21.643-3.867l8.921,28.845c-5.571,1.194-7.86,2.667-9.124,4.484-1.648,2.367-1.554,5.325-4.706,9.025-3.218,3.78-8.791,9.186-12.326,12.471a103.735,103.735,0,0,1-9.4,6.773c-1.443.908,1.087-2.892-1.675-3.753-26.346-6.439-31.015-13.7-40.24-23.593Z" transform="translate(-632.503 -2546.678)" fill="#ffdba7" fill-rule="evenodd"/>
        <path id="Trazado_208340" data-name="Trazado 208340" d="M730.048,2597.794c-13.772,13.32-13.663,14.983-20.3,12.911-2.767.478-14.315,5.237-25.887,3.243-4.577-.788-9.778-5.62-13.5-7.657-2.994-1.637-7.131-3.064-8.616-5.889-1.288-2.448,8.007-10.036,7.763-13.29l1.033-9.972,3.143,1.348c10.3-2.027,14.406-7.515,20.39-10.407,5.577-2.7,15.223-4.775,21.187-2.977.222.067-1.021,5.063-.591,6.928C718.853,2584.938,725.038,2589,730.048,2597.794Z" transform="translate(-635.455 -2542.345)" fill="#eebe69" fill-rule="evenodd"/>
        <path id="Trazado_208341" data-name="Trazado 208341" d="M702.016,2559.781c4.6,10.344,8.865,20.2,12.93,30.772l12.675-6.712-4.649-28.4Z" transform="translate(-611.281 -2547.728)" fill="#4e1aff" fill-rule="evenodd"/>
        <path id="Trazado_208342" data-name="Trazado 208342" d="M711.286,2583.5l-.828,2.76,1.272,3.3,12.675-6.712-2.032-12.4L707.39,2557.1C709.126,2565.965,710.052,2574.559,711.286,2583.5Z" transform="translate(-608.064 -2546.735)" fill="#3a00ff" fill-rule="evenodd"/>
        <path id="Trazado_208343" data-name="Trazado 208343" d="M707.178,2557.621a167.965,167.965,0,0,1,7.043,33.987l14.4-2.983v-35.446Z" transform="translate(-608.191 -2549.08)" fill="#6954ae" fill-rule="evenodd"/>
        <path id="Trazado_208344" data-name="Trazado 208344" d="M711.166,2574.916c.117.9.468,3.432.668,5.477l14.4-2.983v-5.492Z" transform="translate(-605.804 -2537.865)" fill="#5038a1" fill-rule="evenodd"/>
        <path id="Trazado_208345" data-name="Trazado 208345" d="M704.321,2560.415a1.717,1.717,0,1,0,1.333-2.03A1.718,1.718,0,0,0,704.321,2560.415Z" transform="translate(-609.922 -2545.986)" fill="#a287ff" fill-rule="evenodd"/>
        <path id="Trazado_208346" data-name="Trazado 208346" d="M701.914,2565.471c14.473,14.922,19.542,22.434,33.072,36.423,4.369,4.519-2.371,10.629-5.59,10.966-.866,5.2-4.08,5.617-8.643,5.74-3.439,2.857-5.875,2.949-9.647,2.688-5.761,4.191-10.482-.5-14.747-4.107-12.011-10.156-19.061-12.981-28.827-20.736-4.4-3.493-8.066-7.712-15.817-17.539l9.649-23.208c6.182,3.742,11.278,6.356,16.014,7.391C684.277,2564.6,693.857,2564.069,701.914,2565.471Z" transform="translate(-641.388 -2547.573)" fill="#ffdba7" fill-rule="evenodd"/>
        <path id="Trazado_208347" data-name="Trazado 208347" d="M715.045,2587.068c.395.413.8.832,1.208,1.255,4.369,4.519-2.371,10.629-5.59,10.966-.866,5.2-4.079,5.617-8.643,5.74-3.438,2.856-5.875,2.949-9.647,2.687-3.453,2.513-6.53,1.833-9.361.11,2.868.31,9.145.859,7.764-3l-6.56-14c3.731,5.031,5.245,9.69,8.653,14.729,1.615,2.385,8.388.154,7.163-2.884-1.8-4.457-6.808-13-10.442-18.624,7.294,8.357,9.126,13.765,11.992,18.452,1.752,2.866,9.353-1.2,7.32-4.687a196.167,196.167,0,0,0-13.268-19.445c5.825,5.609,9.227,12.147,14.422,17.581,2.774,2.9,6.525-3.7,5.589-6.715C715.432,2588.544,715.231,2587.82,715.045,2587.068Z" transform="translate(-622.656 -2534.001)" fill="#eebe69" fill-rule="evenodd"/>
        <path id="Trazado_208348" data-name="Trazado 208348" d="M666.954,2577.425c3.156-2.089,6.294-4.023,9.372-6.16,8.065-5.606,11.025-9.788,16.19-11.634,2.817-1.007,6.27-.83,10.133-.441l-5.475,12.5a22.043,22.043,0,0,0-9.8,3.775C680.55,2579.937,671.216,2585.655,666.954,2577.425Z" transform="translate(-632.267 -2545.667)" fill="#ffdba7" fill-rule="evenodd"/>
        <path id="Trazado_208349" data-name="Trazado 208349" d="M696.519,2565.136l3.715,2.139c-5.835-.194-11.644,2.42-14.742,4.447-4.768,3.12-10.757,6.85-15.386,6.017,9.222-2.24,13.21-7.331,18.9-10.079A35.042,35.042,0,0,1,696.519,2565.136Z" transform="translate(-630.38 -2541.924)" fill="#eebe69" fill-rule="evenodd"/>
        <path id="Trazado_208350" data-name="Trazado 208350" d="M666.954,2572.071c2.188-1.45,4.367-2.824,6.524-4.242,2.083,1.91,1.332,3.068-.291,4.185-1.32.907-2.866,1.766-4.319,2.6A8.656,8.656,0,0,1,666.954,2572.071Z" transform="translate(-632.267 -2540.312)" fill="#ffefd9" fill-rule="evenodd"/>
        <g id="Grupo_149872" data-name="Grupo 149872" transform="translate(18.925 42.638)">
          <path id="Trazado_208351" data-name="Trazado 208351" d="M698.91,2608.732a13.223,13.223,0,0,1-6.823.946c-2.662-.353-5.82-1.779-6.369-4.324,3.269-3.964,6.6-7.85,9.935-11.756a3.5,3.5,0,0,1,5.491.876c.857,1.853-1.693,6.4-3.608,9.4-1.149,1.8-1.336,2.312-.567,2.911a8.3,8.3,0,0,1,1.941,1.95Zm-13.551-3.364.524-.83,1.036-1.32,7.121-8.386c2.454-2.623,5.979-6.2,5.942-8.7-.021-1.453-.379-2.751-2.641-3.614-1.738-.665-3.168-.631-4.26.844a188.789,188.789,0,0,1-15.063,17.4c-.63,1.961.871,2.847,2.195,3.734,1.252.838,3.167,2.331,5.146.875Zm-7.444-5.1c5.174-5.542,9.665-10.615,15.036-17.18,2.235-3.787-2.553-6.922-6.137-4.748-2.267,1.375-6.922,6.083-10.732,10.036-2.158,2.237-3.957,3.991-5.127,5.387a5.644,5.644,0,0,0-.561,2.455c.118,1.46,2.035,3.1,3.317,3.939a3.6,3.6,0,0,0,4.2.111Zm-8.96-8.143c-2.08,1.3-4.357,3.275-6.319,3.175-2.828-.152-7.395-4.839-4.744-7.27,1.878-1.723,4.567-4.022,7.083-6.194,3.8-3.284,7.451-6.086,10.624-3.587,1.412,1.108,2.543,3.236.46,5.691C673.153,2587.362,671.812,2589.233,668.955,2592.124Z" transform="translate(-657.094 -2577.288)" fill="#ffdba7" fill-rule="evenodd"/>
          <path id="Trazado_208352" data-name="Trazado 208352" d="M687.754,2588.274c.425,2.033-1.928,6.213-3.726,9.021-1.149,1.8-1.336,2.312-.568,2.911a8.523,8.523,0,0,1,1.832,1.8,18.271,18.271,0,0,0-5.628-1.207A35.191,35.191,0,0,0,687.754,2588.274Z" transform="translate(-643.585 -2570.712)" fill="#eebe69" fill-rule="evenodd"/>
          <path id="Trazado_208353" data-name="Trazado 208353" d="M671.2,2599.107a3.844,3.844,0,0,1-2.9.513c2.1-1.587,4.569-4.9,6.247-6.848,2.567-2.983,5.2-5.751,8.509-8.971a19.556,19.556,0,0,0,3.651-4.573,3.5,3.5,0,0,1-.475,2.7C680.868,2588.492,676.378,2593.564,671.2,2599.107Z" transform="translate(-650.382 -2576.127)" fill="#eebe69" fill-rule="evenodd"/>
          <path id="Trazado_208354" data-name="Trazado 208354" d="M667.112,2591.335c-2.08,1.3-4.358,3.275-6.319,3.175a3.3,3.3,0,0,1-.619-.1c5.176-3.6,14.412-11.11,14.484-15.8l.393.452a3.67,3.67,0,0,1-.836,4.091C671.31,2586.573,669.968,2588.444,667.112,2591.335Z" transform="translate(-655.25 -2576.499)" fill="#eebe69" fill-rule="evenodd"/>
          <path id="Trazado_208355" data-name="Trazado 208355" d="M668.289,2585.242c.729-.534,2.818-2.132,3.208-3.435.564-1.88-1.512-4.182-3.446-3.738a7.555,7.555,0,0,0-3.98,3.119c-.333.729.288,2.107,1.434,3.154C666.428,2585.188,667.563,2585.777,668.289,2585.242Z" transform="translate(-652.972 -2576.853)" fill="#ffefd9" fill-rule="evenodd"/>
          <path id="Trazado_208356" data-name="Trazado 208356" d="M678.874,2585.22c.727-.534,2.818-2.133,3.208-3.437.564-1.878-1.512-4.18-3.446-3.734a7.54,7.54,0,0,0-3.98,3.116c-.332.729.288,2.107,1.434,3.154C677.013,2585.166,678.148,2585.754,678.874,2585.22Z" transform="translate(-646.636 -2576.866)" fill="#ffefd9" fill-rule="evenodd"/>
          <path id="Trazado_208357" data-name="Trazado 208357" d="M680.777,2590.507c.326-.62,1.308-2.4,2.26-2.853a2.447,2.447,0,0,1,3.258,2.207,5.82,5.82,0,0,1-1.926,3.407c-.52.339-1.645.024-2.58-.732C681.036,2591.925,680.454,2591.126,680.777,2590.507Z" transform="translate(-642.973 -2571.185)" fill="#ffefd9" fill-rule="evenodd"/>
          <path id="Trazado_208358" data-name="Trazado 208358" d="M672.787,2602.491c2.55-1.861,9.2-9.75,13.455-14.537a41.033,41.033,0,0,0,4.335-5.367c.008.124.011.246.013.371.037,2.5-3.488,6.08-5.942,8.7l-5.843,6.882-.368.431-.911,1.073-1.036,1.32-.524.83A3.019,3.019,0,0,1,672.787,2602.491Z" transform="translate(-647.701 -2574.116)" fill="#eebe69" fill-rule="evenodd"/>
          <path id="Trazado_208359" data-name="Trazado 208359" d="M678.9,2584.489c.492-.758,1.968-2.935,3.248-3.4,1.841-.67,4.26,1.271,3.924,3.226a7.513,7.513,0,0,1-2.884,4.151c-.707.378-2.118-.163-3.231-1.248C679.058,2586.343,678.406,2585.245,678.9,2584.489Z" transform="translate(-644.144 -2575.094)" fill="#ffefd9" fill-rule="evenodd"/>
        </g>
        <g id="Grupo_149873" data-name="Grupo 149873">
          <path id="Trazado_208360" data-name="Trazado 208360" d="M674.211,2560.011c-5.622,9.828-10.856,19.209-15.966,29.313l-11.933-7.953,7.487-27.789Z" transform="translate(-644.622 -2548.839)" fill="#6954ae" fill-rule="evenodd"/>
          <path id="Trazado_208361" data-name="Trazado 208361" d="M659.3,2581.886l.547,2.829-1.6,3.155-11.933-7.953,3.272-12.139,16.252-11.769C663.215,2564.658,661.428,2573.116,659.3,2581.886Z" transform="translate(-644.622 -2547.386)" fill="#5038a1" fill-rule="evenodd"/>
          <path id="Trazado_208362" data-name="Trazado 208362" d="M666.989,2557.463a167.8,167.8,0,0,0-10.431,33.1l-11.3-3.56v-36.391Z" transform="translate(-645.255 -2550.615)" fill="#4e1aff" fill-rule="evenodd"/>
          <path id="Trazado_208363" data-name="Trazado 208363" d="M657.773,2573.674c-.206.886-.812,3.37-1.215,5.384l-11.3-3.56v-5.657Z" transform="translate(-645.255 -2539.107)" fill="#3a00ff" fill-rule="evenodd"/>
          <path id="Trazado_208364" data-name="Trazado 208364" d="M662.592,2559.689a1.718,1.718,0,1,1-1.122-2.156A1.716,1.716,0,0,1,662.592,2559.689Z" transform="translate(-636.887 -2546.522)" fill="#fdad33" fill-rule="evenodd"/>
        </g>
      </g>
      <g id="Grupo_149875" data-name="Grupo 149875" transform="translate(694.117 1251.085)">
        <path id="Trazado_208365" data-name="Trazado 208365" d="M469.184,2621.066a2.463,2.463,0,0,1,2.14-.979q2.024,0,4.048-.013a2.574,2.574,0,0,1,1.822-.314q18.948-.012,37.9,0c2.328,0,1.959-.007,2.1-1.864a29.716,29.716,0,0,1,1.146-6.366c.3-.99.212-1.1-.821-1.108-1.263-.017-2.526,0-3.789-.007-1.829-.007-1.893-.071-1.959-1.891-.036-2.587.176-5.163.335-7.74.092-1.488.155-2.982.2-4.466.1-3.51.4-7.011.482-10.523a15.83,15.83,0,0,1,.367-3.839.786.786,0,0,1,.557-.381,15.268,15.268,0,0,1,5.089.129c-.794,1.683-.424,3.441-.305,5.174.107,1.554.159,3.114.217,4.667.133,3.512.352,7.019.487,10.53.083,2.216.155,4.438.354,6.653.057.639.33.851.935.874a10.42,10.42,0,0,1,3.061.17c.34.264.224.6.105.9a24.094,24.094,0,0,0-1.755,8.905,1.166,1.166,0,0,1-.124.477c-.473.656-1.186.482-1.824.489-2.254.029-2.243.017-2.043,2.247a27.139,27.139,0,0,0,2.623,9.408c.183.38.457.744.318,1.211-1.229.009-2.457.026-3.688.026q-22.934,0-45.868.015a2.221,2.221,0,0,1-2.107-1.011Z" transform="translate(-469.184 -2546.43)" fill="#c6c5ca"/>
        <path id="Trazado_208366" data-name="Trazado 208366" d="M516.257,2587.318c-1.545,0-3.087,0-4.632-.012a1.608,1.608,0,0,0-.944.207c-2.209.223-4.421.076-6.632.082-3.306-.062-6.611.091-9.918.008-2.2.035-4.407.049-6.611,0-2.816-.047-5.633.036-8.449.03a2.128,2.128,0,0,1-1.519-.32c-1.061,0-2.123.009-3.184,0a1.474,1.474,0,0,1-1.586-1.517q-.041-5.076,0-10.148c.009-1.143.939-1.4,1.8-1.686,2.616-.259,5.241-.131,7.862-.131q31.142-.018,62.286-.01c.863,0,1.726.083,2.59.031,1.02-.051,2.041-.018,3.063-.011a1.566,1.566,0,0,1,1.032.273,2.126,2.126,0,0,1,.262,1.344q.013,5.234,0,10.468c-.005,1.5-.181,1.657-1.662,1.668-.5.006-1,0-1.495,0-.8.019-1.6.057-2.39,0a2.635,2.635,0,0,0-2.326.749,1.668,1.668,0,0,0-1.686-.754c-.923.045-1.85.01-2.775.01-1.4,0-1.4,0-1.886,1.269-.768.008-.373-.8-.749-1.062a.967.967,0,0,0-.742-.22c-2.523-.015-5.046.026-7.567.035-.4,0-.78.166-1.18.173a28.34,28.34,0,0,0-4.93-.176c-.559-.022-1.12.01-1.681-.019-1.082.05-2.164.022-3.246.016A1.411,1.411,0,0,1,516.257,2587.318Z" transform="translate(-466.587 -2551.965)" fill="#dfdfe1"/>
        <path id="Trazado_208367" data-name="Trazado 208367" d="M499.639,2614.439a26.586,26.586,0,0,1,2.047-10.19c-.067-.83.547-1.4.808-2.1a24.053,24.053,0,0,1,4.278-5.617,22.662,22.662,0,0,1,6.461-4.716,24.127,24.127,0,0,1,5.436-2.049,15.5,15.5,0,0,1,3.874-.561,24.714,24.714,0,0,1,14.708,6.642,25.135,25.135,0,0,1-11.3,42.8,9.352,9.352,0,0,1-3.135.324,24.523,24.523,0,0,1-18.634-10.472c-.178-.24-.349-.485-.523-.729a2.531,2.531,0,0,1-1.016-1.189,25.9,25.9,0,0,1-3.182-10.18A3.7,3.7,0,0,1,499.639,2614.439Z" transform="translate(-447.25 -2540.781)" fill="#fecf39"/>
        <path id="Trazado_208368" data-name="Trazado 208368" d="M546.608,2580.447q-35.977.005-71.955,0c-.286,0-.607.1-.837-.185q13.522-5.633,27.041-11.261,4.719-1.965,9.446-3.909a2.438,2.438,0,0,1,.961.226c7.308,3.067,14.628,6.1,21.942,9.156,4.192,1.751,8.4,3.469,12.573,5.256C546.12,2579.879,546.586,2579.917,546.608,2580.447Z" transform="translate(-465.823 -2558.277)" fill="#c5c4c9"/>
        <path id="Trazado_208369" data-name="Trazado 208369" d="M509.456,2597.343c.036,1.6.036,1.6,1.691,1.6,1.527,0,3.056.009,4.585-.005.561,0,.787.107.569.75a27.351,27.351,0,0,0-1.441,8.561c-.005.537-.233.708-.725.675-.264-.019-.531,0-.8,0q-20.284,0-40.567,0,0-3.932,0-7.862c0-1.675.438-2.117,2.095-2.119q.645,0,1.293,0a2.138,2.138,0,0,1,1.517-.32c3.709-.036,7.415.067,11.122.034.823-.04,1.651-.038,2.475-.007.766.029,1.18-.205,1.177-1.049,0-.316-.11-.852.53-.818a.883.883,0,0,1,.174.353c.328,1.491.328,1.5,1.886,1.492,3.444-.015,6.891.059,10.335.031.792-.033,1.584-.03,2.376,0,.706.022,1.248-.1,1.32-.948A.367.367,0,0,1,509.456,2597.343Z" transform="translate(-466.583 -2535.28)" fill="#dfdfe1"/>
        <path id="Trazado_208370" data-name="Trazado 208370" d="M513.06,2639.056a25.511,25.511,0,0,0,12.287-4.935,24.888,24.888,0,0,0,8.934-13.031,24.425,24.425,0,0,0-2.485-19.417,24.74,24.74,0,0,0-15.629-11.561,18.239,18.239,0,0,0-3.313-.564c.238-.587.764-.4,1.2-.452.286-.014.573,0,.859,0a8.715,8.715,0,0,1,1.7.067c.854.177,1.738.145,2.589.349.318.033.62.145.932.205a23.12,23.12,0,0,1,4.067,1.263,3.092,3.092,0,0,1,1.25.778,26.143,26.143,0,0,1,10.23,9.07,24.883,24.883,0,0,1-15.931,37.827A17.848,17.848,0,0,1,513.06,2639.056Z" transform="translate(-437.495 -2540.868)" fill="#fdb74d"/>
        <path id="Trazado_208371" data-name="Trazado 208371" d="M531.265,2583.314a54.044,54.044,0,0,0-5.437-2.365c-5.084-2.149-10.182-4.265-15.276-6.387q-6.725-2.8-13.457-5.6a9.6,9.6,0,0,1-2.135-1c.842-.38,1.669-.8,2.53-1.125a.863.863,0,0,0,.644-.963c-.024-1.063-.017-2.126,0-3.189.014-1.014.423-1.486,1.293-1.538a1.468,1.468,0,0,1,1.672,1.438c.059,1.061.045,2.128.009,3.189a1.019,1.019,0,0,0,.716,1.134q16.432,6.816,32.85,13.66c2.048.853,4.093,1.717,6.14,2.577-.009.372-.318.42-.561.435a30.539,30.539,0,0,1-4.575-.021.939.939,0,0,1-.44-.223Z" transform="translate(-450.479 -2561.144)" fill="#b1b0b4"/>
        <path id="Trazado_208372" data-name="Trazado 208372" d="M487.508,2609.948H474.731c.207-4.558.373-9.119.637-13.673.145-2.54.3-5.08.381-7.624.079-2.344.247-4.685.376-7.027h9.988a.235.235,0,0,1-.1.313,13.245,13.245,0,0,1-3.658.185c-1.3.053-1.365.1-1.215,1.381.183,1.587.152,3.185.223,4.773.154,3.416.35,6.828.48,10.246.114,2.983.337,5.965.4,8.953.009.365.112.723.141,1.087a.844.844,0,0,0,.97.877,18.754,18.754,0,0,1,2.093.017,1.5,1.5,0,0,0,1.82-1.1C488.074,2608.781,487.8,2609.362,487.508,2609.948Z" transform="translate(-465.159 -2546.282)" fill="#c5c4c9"/>
        <path id="Trazado_208373" data-name="Trazado 208373" d="M521.754,2574.084c1.548-.005,3.094,0,4.642-.021.316,0,.666.118.933-.17,1.467.538,1.625.765,1.624,2.293,0,3.111,0,6.223,0,9.334,0,1.291-.43,1.712-1.722,1.726a17.358,17.358,0,0,1-1.886-.009c-.789-.077-1.11.205-.987,1a3.281,3.281,0,0,1-.017.594.5.5,0,0,1-.1-.016c-.471-.2-.276-1.006-.937-1.034a17.78,17.78,0,0,0-3.574.049c-.525.084-.447.611-.437.989.057,2.121.152,4.243.305,6.359.116,1.621.005,3.253.255,4.869a1.046,1.046,0,0,1-.281.922c-.3.077-.523-.154-.794-.195a2.256,2.256,0,0,0-2.6-.356l-1.791-.046a2.067,2.067,0,0,1-.778-.911,1.778,1.778,0,0,1,.069-1.217c1.142-.963,1.154-1.26.117-2.885a1.69,1.69,0,0,1,.059-1.076c1.28-1.063,1.07-1.777.164-2.966a1.673,1.673,0,0,1,.073-1.283c.326-.315.773-.544.806-1.073.052-.83.58-1.043,1.294-1a3.2,3.2,0,0,0,2.583-.72c.7,0,1.4-.046,2.091,0s.921-.186.915-.9C521.749,2582.259,521.76,2578.173,521.754,2574.084Z" transform="translate(-436.998 -2551.892)" fill="#c5c4c9"/>
        <path id="Trazado_208374" data-name="Trazado 208374" d="M517.3,2595.274q-.292-5.177-.585-10.354c-.005-.1-.005-.2-.009-.3-.1-2.89-.1-2.89,2.768-2.885.166,0,.331,0,.5,0,1.66,0,1.66,0,2.1,1.4q.308,6.975.616,13.954A34.337,34.337,0,0,0,517.3,2595.274Z" transform="translate(-434.723 -2546.199)" fill="#b1b0b4"/>
        <path id="Trazado_208375" data-name="Trazado 208375" d="M501.227,2603.828a25.161,25.161,0,0,0,2.882,11.348c.354.674.758,1.322,1.137,1.981q-2.374-.005-4.746-.012a26.454,26.454,0,0,1-3.2-10.65c-.188-2.49-.212-2.478,2.271-2.5A3.012,3.012,0,0,0,501.227,2603.828Z" transform="translate(-448.837 -2530.169)" fill="#b1b0b4"/>
        <path id="Trazado_208376" data-name="Trazado 208376" d="M504.121,2607.746l-.989,2.005c-1.194,0-2.39-.018-3.584,0-.512.008-.778-.1-.8-.7-.105-3.1-.219-6.209-.4-9.308-.242-4.221-.4-8.448-.654-12.667a32.915,32.915,0,0,0-.264-4.839c-.145-.688.74-.2.932-.6l4.375-.01a4.905,4.905,0,0,1,.516,2.595c.209,5.23.526,10.458.744,15.688C504.107,2602.513,504.542,2605.127,504.121,2607.746Z" transform="translate(-448.696 -2546.282)" fill="#b1b0b4"/>
        <path id="Trazado_208377" data-name="Trazado 208377" d="M496.987,2607.727c.354.714.1,1.482.192,2.221l-11.312,0c-1.268,0-1.267,0-1.265-1.3,0-.3-.009-.6-.012-.892a3.67,3.67,0,0,1-.252-2.606c.224-1.813.221-3.638.293-5.449.14-3.5.364-7,.5-10.509.083-2.209.095-4.433.362-6.636a1.548,1.548,0,0,1,.307-.923h9.986l-.029.2c-.585.459-1.274.27-1.922.3-.794.031-1.591,0-2.387.017-.5.016-.69.249-.657.759.261,4.264.383,8.537.654,12.8.11,1.717.162,3.441.24,5.163.112,2.514.205,5.03.388,7.542.055.769.369,1.056,1.106,1.034.8-.023,1.593-.026,2.388,0,.725.026,1.139-.221,1.125-1.008A.831.831,0,0,1,496.987,2607.727Z" transform="translate(-458.272 -2546.282)" fill="#c5c4c9"/>
        <path id="Trazado_208378" data-name="Trazado 208378" d="M503.752,2602.137a6.48,6.48,0,0,0,.183-1.47c.129-3.571.223-7.144.435-10.709.157-2.642.309-5.28.38-7.926a1.009,1.009,0,0,1,.835-.413c2.866.016,5.731.007,8.6.005a.538.538,0,0,1,.521.208c-.754.521-1.61.275-2.421.3-2.706.074-2.559-.409-2.409,2.546.171,3.343.243,6.693.514,10.032a4.435,4.435,0,0,1-.264,2.82A28.025,28.025,0,0,0,503.752,2602.137Z" transform="translate(-444.099 -2546.286)" fill="#c5c4c9"/>
        <path id="Trazado_208379" data-name="Trazado 208379" d="M512.472,2583.155c.133,4.106.314,8.209.606,12.306a28.954,28.954,0,0,0-5.376,1.984c-.135-3.726-.2-7.455-.44-11.174-.078-1.22-.093-2.437-.171-3.653-.046-.722.245-.908.92-.887,1.422.041,2.847.017,4.271.02C512.358,2582.218,512.149,2582.722,512.472,2583.155Z" transform="translate(-441.68 -2546.205)" fill="#b1b0b4"/>
        <path id="Trazado_208380" data-name="Trazado 208380" d="M513.927,2584.428q0-.894,0-1.789c.1-.922.663-1.084,1.493-1.02,1.02.078,2.05.021,3.077.024-.323,1.1-1.2,1.015-2.071,1-.78-.017-1.727-.285-1.569,1.128C514.905,2584.214,514.419,2584.454,513.927,2584.428Z" transform="translate(-436.717 -2546.294)" fill="#c5c4c9"/>
        <path id="Trazado_208381" data-name="Trazado 208381" d="M537.7,2610.749a16.734,16.734,0,1,1-16.264-16.767C530.284,2594.136,537.969,2601.679,537.7,2610.749Z" transform="translate(-443.747 -2537.316)" fill="#f89508"/>
        <path id="Trazado_208382" data-name="Trazado 208382" d="M515.069,2589.51c.055-.147.069-.349.174-.433a2.106,2.106,0,0,1,2.423.788A15.046,15.046,0,0,1,515.069,2589.51Z" transform="translate(-435.887 -2540.986)" fill="#c5c4c9"/>
        <path id="Trazado_208383" data-name="Trazado 208383" d="M513.578,2589.573c.023-.269-.074-.564.167-.787a.957.957,0,0,1,.614.777Z" transform="translate(-436.969 -2541.085)" fill="#c5c4c9"/>
        <path id="Trazado_208384" data-name="Trazado 208384" d="M483.582,2581.758c.214,4.665.4,9.329.651,13.992.228,4.166.5,8.33.587,12.5-.055,1.425-.055,1.425-1.472,1.425-.994,0-1.99-.022-2.984.007-.552.018-.728-.179-.766-.74-.192-2.8-.274-5.607-.412-8.409-.2-4.155-.362-8.314-.63-12.463a29.676,29.676,0,0,0-.323-5.23c-.181-.74.06-1.161.973-1.113C480.66,2581.8,482.124,2581.755,483.582,2581.758Z" transform="translate(-462.658 -2546.209)" fill="#b1b0b4"/>
        <path id="Trazado_208385" data-name="Trazado 208385" d="M513.822,2586.845a8.716,8.716,0,0,1,.167-2.8c.967.336.813,1.151.813,1.9C514.8,2586.6,514.319,2586.732,513.822,2586.845Z" transform="translate(-436.814 -2544.524)" fill="#c5c4c9"/>
        <path id="Trazado_208386" data-name="Trazado 208386" d="M513.708,2589.161a8.479,8.479,0,0,1,.172-2.806,1.736,1.736,0,0,1,.806,1.938A.856.856,0,0,1,513.708,2589.161Z" transform="translate(-436.897 -2542.849)" fill="#c5c4c9"/>
        <path id="Trazado_208387" data-name="Trazado 208387" d="M494.4,2607.648c-.076,2.022-.076,2.022-2.167,2.022h-.3c-2.78,0-2.8,0-2.93-2.8-.1-2.247-.09-4.5-.221-6.742-.245-4.219-.409-8.444-.649-12.662a24.768,24.768,0,0,0-.316-4.933c-.155-.594.164-.815.77-.8,1.525.033,3.053.015,4.578.019.212,4.466.4,8.932.645,13.4C494.042,2599.313,494.318,2603.476,494.4,2607.648Z" transform="translate(-455.688 -2546.204)" fill="#b1b0b4"/>
        <path id="Trazado_208388" data-name="Trazado 208388" d="M522.627,2613.236a5.639,5.639,0,0,1-3.981,5.479.741.741,0,0,0-.611.854,9.294,9.294,0,0,1-.005,1.1,1.506,1.506,0,0,1-1.555,1.464,1.461,1.461,0,0,1-1.427-1.562,4.927,4.927,0,0,1,0-.8,1.122,1.122,0,0,0-.828-1.357,7.38,7.38,0,0,1-3.424-3.058,1.687,1.687,0,0,1,.257-2.393c.783-.488,1.581-.209,2.249.749.9,1.289,1.895,2.376,3.7,2.249a2.639,2.639,0,0,0,2.63-2.471,2.243,2.243,0,0,0-2.1-2.721,19.006,19.006,0,0,1-2.909-.577,4.917,4.917,0,0,1-3.4-4.747,5.391,5.391,0,0,1,3.3-5.688.773.773,0,0,0,.525-.847c-.029-.4-.014-.8,0-1.2.028-1,.437-1.466,1.322-1.527a1.389,1.389,0,0,1,1.619,1.351c-.138,1.4.482,1.946,1.67,2.539a5.581,5.581,0,0,1,2.658,3.7,1.487,1.487,0,0,1-2.794.956c-.121-.273-.2-.564-.324-.832a2.576,2.576,0,0,0-3.306-1.45c-1.279.354-1.755,1.25-1.646,3.093.067,1.163.84,1.825,2.283,2.028a7.681,7.681,0,0,1,4.48,1.664A4.91,4.91,0,0,1,522.627,2613.236Z" transform="translate(-439.252 -2535.719)" fill="#fecf39"/>
      </g>
      <g id="Grupo_149876" data-name="Grupo 149876" transform="translate(1015.025 823.973)">
        <path id="Trazado_208389" data-name="Trazado 208389" d="M749.687,2169.419c.693-1.51,2.045-1.424,3.375-1.4a1.589,1.589,0,0,1,1.243-.292c1.9-.012,3.8,0,5.706,0q32.569,0,65.135,0a9.755,9.755,0,0,1,1.228.027,15.542,15.542,0,0,1,3.5.137.761.761,0,0,1,.306.688,37.26,37.26,0,0,1,.008,4.194,1.287,1.287,0,0,1-.216.657c-.41,0-.819.016-1.227.016H751.173a1.952,1.952,0,0,1-1.486-.339Z" transform="translate(-749.687 -2088.482)" fill="#fdc46d"/>
        <path id="Trazado_208390" data-name="Trazado 208390" d="M749.826,2133.892l-.071.006-.068-.024v-2.636a.666.666,0,0,1,.153-.013A2.654,2.654,0,0,1,749.826,2133.892Z" transform="translate(-749.687 -2107.222)" fill="#3a00ff"/>
        <path id="Trazado_208391" data-name="Trazado 208391" d="M749.779,2140.63l.014-2.667c.127-.545.63-.657,1.029-.867q16.05-8.432,32.107-16.853,2.054-1.076,4.117-2.143a16.181,16.181,0,0,1,3.361,1.671c3.325,1.777,6.638,3.58,9.953,5.379q7.088,3.853,14.19,7.681c3.885,2.1,7.757,4.218,11.655,6.287.854.453,1.683.944,2.541,1.388.306.159.766.351.35.854-1.2.443-2.441.138-3.663.214a5.525,5.525,0,0,1-.878.028q-34.507,0-69.013,0a2.486,2.486,0,0,1-1.693-.279q-1.485-.023-2.971-.045C750.39,2141.268,749.935,2141.205,749.779,2140.63Z" transform="translate(-749.64 -2113.96)" fill="#fdc46d"/>
        <path id="Trazado_208392" data-name="Trazado 208392" d="M816.576,2142.542a9.1,9.1,0,0,0-2.459-1.464c-4.017-2.212-8.079-4.343-12.112-6.526q-9.013-4.881-18.012-9.788c-3-1.631-6.015-3.247-9.022-4.87-.2-.111-.44-.169-.569-.389q3.7-1.966,7.407-3.937a2,2,0,0,1,2.057.216q8.967,4.868,17.95,9.712,11.98,6.479,23.969,12.946a1.843,1.843,0,0,1,1.132,1.844c-.006,2.632-.1,2.433-2.4,2.42-.586,0-1.17.019-1.756.027a1.342,1.342,0,0,1-.82.254c-1.456.015-2.912.03-4.368-.009A1.087,1.087,0,0,1,816.576,2142.542Z" transform="translate(-736.996 -2115.365)" fill="#fdb74d"/>
        <path id="Trazado_208393" data-name="Trazado 208393" d="M803.02,2140.741q-.011,13.385-.02,26.77c0,1.2.027,2.4.042,3.6a1.062,1.062,0,0,1-.884.292q-2.758.032-5.517,0a1.3,1.3,0,0,1-.831-.227,1.532,1.532,0,0,1-.121-.854c.018-9.329,0-18.658.012-27.986a2.8,2.8,0,0,1,.225-1.625,1.592,1.592,0,0,1,1.076-.256q2.479-.016,4.958,0A1.329,1.329,0,0,1,803.02,2140.741Z" transform="translate(-726.068 -2102.487)" fill="#fdad33"/>
        <path id="Trazado_208394" data-name="Trazado 208394" d="M803.837,2142.651l-7.089.02c-1.374.561-2.447,0-2.65-1.377,0-1.111,0-2.22,0-3.331,0-.631.254-.982.914-1.029a61.644,61.644,0,0,1,7.7-.141,12.859,12.859,0,0,0,2.408.141c.395.008.817-.061,1.143.263.008,1.188.023,2.376.024,3.565,0,1.468-.394,1.866-1.84,1.878C804.242,2142.64,804.039,2142.647,803.837,2142.651Z" transform="translate(-726.884 -2104.396)" fill="#fdc56f"/>
        <path id="Trazado_208395" data-name="Trazado 208395" d="M796.62,2160.8l7.242-.01c.319,0,.64-.01.96,0a1.309,1.309,0,0,1,1.462,1.453c.021,1.336,0,2.675,0,4.012-.849.516-1.778.188-2.668.259-2.777.052-5.554.03-8.33.011-.987-.006-1.168-.216-1.185-1.2-.018-1.052-.008-2.1,0-3.156A1.606,1.606,0,0,1,796.62,2160.8Z" transform="translate(-726.886 -2092.165)" fill="#fdc56f"/>
        <path id="Trazado_208396" data-name="Trazado 208396" d="M800.506,2164.319l2.632,0,4.621.026c1.777.01,2.549.776,2.564,2.538.008.958.02,1.918.029,2.877a1.014,1.014,0,0,1-.8.274q-2.361.039-4.721,0a1.011,1.011,0,0,1-.805-.268l-3.513,0a.965.965,0,0,1-.257-.632q-.07-2.087,0-4.176A.956.956,0,0,1,800.506,2164.319Z" transform="translate(-723.74 -2090.229)" fill="#eeb535"/>
        <path id="Trazado_208397" data-name="Trazado 208397" d="M803.415,2138.945a14.4,14.4,0,0,1-3.489-.176,1.064,1.064,0,0,1-.262-.719q-.05-1.916,0-3.829a1.062,1.062,0,0,1,.263-.721c1.227-.1,2.476.208,3.69-.178a16.429,16.429,0,0,0,3.823.171c.785.035,1.573.017,2.36.021,0,1.282.007,2.564-.014,3.844-.017,1.019-.416,1.424-1.435,1.439-1.368.021-2.736,0-4.1.012C803.967,2138.813,803.66,2138.71,803.415,2138.945Z" transform="translate(-724.038 -2106.145)" fill="#eeb535"/>
        <path id="Trazado_208398" data-name="Trazado 208398" d="M802.734,2167.924l6.328-.006c2.659-.122,3.475.387,3.351,3.365-.092,2.211.182,2.1-2.079,2.084q-3.8-.021-7.6-.03Z" transform="translate(-722.451 -2088.389)" fill="#fdb74d"/>
        <path id="Trazado_208399" data-name="Trazado 208399" d="M825.309,2165.759q0,2.722,0,5.442l-72.081,0c-.439,0-.878,0-1.317.006.006-.935.009-1.872.017-2.807.017-1.855.633-2.511,2.531-2.579,1.548-.058,3.1-.044,4.648-.062a1.756,1.756,0,0,1,1.329-.281c3.029-.009,6.058,0,9.087-.008,1.165,0,1.184-.06,1.232-1.246a6.074,6.074,0,0,1,.222-2.662c.551-.009.445.443.472.738.067.723.014,1.453.03,2.181.02.9.091.979,1.019.99,1.863.023,3.725-.02,5.588.02q5.948-.057,11.891,0,3.523-.052,7.047,0,5.943-.055,11.887,0c1.78-.033,3.561,0,5.341-.015,1.261-.008,1.283-.032,1.292-1.261,0-.613-.024-1.228.017-1.839.021-.332-.033-.727.412-.869.009,1.136.053,2.275.012,3.41-.023.648.174.855.836.848C819.653,2165.736,822.48,2165.757,825.309,2165.759Z" transform="translate(-748.542 -2091.67)" fill="#fdad33"/>
        <path id="Trazado_208400" data-name="Trazado 208400" d="M824.152,2133.44l0,5.268c-1.2,0-2.394.049-3.588-.01-1.432-.07-2.839.266-4.268.184-.489-.028-.578.233-.577.648.008,1.195-.008,2.392-.015,3.588-.492-.156-.4-.59-.418-.945-.039-.785-.017-1.573-.014-2.363,0-.522-.177-.835-.755-.823-1.953.041-3.908-.119-5.857.1a18.144,18.144,0,0,1-2.964-.059,49.524,49.524,0,0,0-6.732.081,8.789,8.789,0,0,1-2.181-.021,48.223,48.223,0,0,0-7.085,0,17.1,17.1,0,0,1-2.879-.049,49.21,49.21,0,0,0-6.732.062,9.646,9.646,0,0,1-2.27-.009,58.991,58.991,0,0,0-5.921-.1c-.536-.009-.692.309-.7.782-.006.815.027,1.628-.02,2.441-.02.344.083.795-.453.9a1.387,1.387,0,0,1-.25-.991c-.015-.671-.027-1.342,0-2.01.027-.65-.2-.924-.891-.966a59.4,59.4,0,0,0-8.987-.014,2.271,2.271,0,0,1-1.768-.253,5.884,5.884,0,0,0-2.305-.145c-.9-.047-1.8,0-2.7-.019a1.2,1.2,0,0,1-1.347-1.347c-.023-1.309-.006-2.619,0-3.928Z" transform="translate(-748.261 -2106.084)" fill="#fdad33"/>
        <path id="Trazado_208401" data-name="Trazado 208401" d="M758.256,2171.108c.015-.233.042-.467.042-.7q0-14.616,0-29.23c0-.146-.014-.292-.021-.437a1.115,1.115,0,0,1,.893-.281q2.674-.027,5.349,0a1.32,1.32,0,0,1,.831.225,1.935,1.935,0,0,1,.247,1.267c.014,9.506-.012,19.014.015,28.522a1.424,1.424,0,0,1-.1.687,1.357,1.357,0,0,1-.9.24q-2.695.028-5.386,0A1.158,1.158,0,0,1,758.256,2171.108Z" transform="translate(-745.287 -2102.487)" fill="#fdad33"/>
        <path id="Trazado_208402" data-name="Trazado 208402" d="M766.189,2142.581l-7.089-.02c-.347,0-.7,0-1.043-.017a1.321,1.321,0,0,1-1.4-1.439c-.018-1.333.012-2.667.021-4,2.329.017,4.651-.227,6.983-.2,1.459.018,2.9.274,4.356.2.489-.024.581.233.578.648-.008,1.2.009,2.394.015,3.59.286.5.011.851-.374,1.09A1.9,1.9,0,0,1,766.189,2142.581Z" transform="translate(-746.11 -2104.306)" fill="#fdc56f"/>
        <path id="Trazado_208403" data-name="Trazado 208403" d="M759.079,2160.777l7.24.01a1.8,1.8,0,0,1,2.146.264.739.739,0,0,1,.153.947c-.008,1.106-.059,2.216-.011,3.319.032.717-.179.948-.919.939-3.67-.033-7.34-.01-11.011-.007-.009-1.221-.024-2.444-.026-3.666,0-1.415.392-1.8,1.815-1.809C758.672,2160.774,758.875,2160.777,759.079,2160.777Z" transform="translate(-746.11 -2092.156)" fill="#fdc56f"/>
        <path id="Trazado_208404" data-name="Trazado 208404" d="M769.209,2166.268c-.011-1.255-.029-2.508-.027-3.763,0-1.318.394-1.7,1.727-1.71.233,0,.468,0,.7,0a1.715,1.715,0,0,1,1.079-.264q2.481-.01,4.964,0a1.84,1.84,0,0,1,1.084.256c2.373.032,2.435.092,2.431,2.5,0,.993-.023,1.986-.035,2.977Z" transform="translate(-739.677 -2092.175)" fill="#fdc56f"/>
        <path id="Trazado_208405" data-name="Trazado 208405" d="M781.735,2166.263c-.012-1.254-.033-2.511-.032-3.765,0-1.332.375-1.691,1.728-1.7l.7-.008a1.838,1.838,0,0,1,1.084-.256q2.481-.007,4.963,0a1.717,1.717,0,0,1,1.081.264c.321,0,.642-.008.963,0,.993.032,1.451.466,1.461,1.445.012,1.342-.014,2.685-.023,4.026Z" transform="translate(-733.247 -2092.175)" fill="#fdc56f"/>
        <path id="Trazado_208406" data-name="Trazado 208406" d="M771.631,2142.554l-.784-.015c-1.235-.021-1.665-.45-1.665-1.7s.018-2.5.029-3.749a103.389,103.389,0,0,1,11.92,0c.012,1.252.035,2.5.035,3.753s-.419,1.669-1.668,1.694c-.262,0-.524.015-.785.022a1.577,1.577,0,0,1-1,.263q-2.545.011-5.088,0A1.486,1.486,0,0,1,771.631,2142.554Z" transform="translate(-739.677 -2104.296)" fill="#fdc56f"/>
        <path id="Trazado_208407" data-name="Trazado 208407" d="M784.156,2142.561c-.262-.007-.524-.018-.787-.022-1.249-.024-1.665-.435-1.666-1.694s.021-2.5.035-3.753a103.36,103.36,0,0,1,11.919,0c.011,1.25.03,2.5.03,3.749s-.431,1.674-1.665,1.7l-.785.015a1.37,1.37,0,0,1-.907.268q-2.631.021-5.262,0A1.475,1.475,0,0,1,784.156,2142.561Z" transform="translate(-733.247 -2104.296)" fill="#fdc56f"/>
        <path id="Trazado_208408" data-name="Trazado 208408" d="M783.332,2140.65l7.08-.007q-.007,15.006-.012,30.014a3.4,3.4,0,0,0,.035.348l-7.127-.008a3.39,3.39,0,0,0,.036-.348Q783.34,2155.65,783.332,2140.65Z" transform="translate(-732.423 -2102.386)" fill="#fdad33"/>
        <path id="Trazado_208409" data-name="Trazado 208409" d="M770.807,2140.643l7.082.007q-.007,15-.012,30a3.385,3.385,0,0,0,.035.348l-7.125.008a3.439,3.439,0,0,0,.035-.348Q770.816,2155.649,770.807,2140.643Z" transform="translate(-738.853 -2102.386)" fill="#fdad33"/>
      </g>
      <g id="Grupo_149877" data-name="Grupo 149877" transform="translate(222.029 982.484)">
        <path id="Trazado_208410" data-name="Trazado 208410" d="M140.849,2263.7a13.036,13.036,0,0,1-1.029,1.954,4.513,4.513,0,0,1-6.432.661c-1.523-1.271-2.906-2.7-4.46-3.943a48.253,48.253,0,0,0-23.9-10.355A49.058,49.058,0,0,0,68.1,2261.4a54.872,54.872,0,0,0-5.27,4.543,4.485,4.485,0,0,1-4.781,1.152A4.364,4.364,0,0,1,55,2263.62a4.533,4.533,0,0,1,1.459-4.325,56.383,56.383,0,0,1,26.392-15.019c19.808-4.833,37.672-.769,53.424,12.265.754.624,1.439,1.328,2.181,1.965a6.757,6.757,0,0,1,2.388,3.514Z" transform="translate(-54.906 -2242.309)" fill="#4d3992"/>
        <path id="Trazado_208411" data-name="Trazado 208411" d="M95.607,2254.1c9.088.148,18.714,3.994,26.739,11.758a4.534,4.534,0,0,1,1.394,4.722,4.365,4.365,0,0,1-3.4,3.239,4.319,4.319,0,0,1-3.852-.892c-1.352-1.084-2.553-2.335-3.961-3.361a31.324,31.324,0,0,0-22.339-6.04,30.878,30.878,0,0,0-17.691,7.811c-1.078.954-2.024,2.087-3.532,2.454a4.61,4.61,0,0,1-4.922-1.868,4.507,4.507,0,0,1,.148-5.32,27.937,27.937,0,0,1,5.185-4.616C76.416,2256.836,84.8,2254.115,95.607,2254.1Z" transform="translate(-50.621 -2236.252)" fill="#4d3992"/>
        <path id="Trazado_208412" data-name="Trazado 208412" d="M90.306,2265.733a22.713,22.713,0,0,1,15.472,6.726,4.586,4.586,0,0,1,.245,6.479,4.494,4.494,0,0,1-6.328.342,16.272,16.272,0,0,0-5.538-3.521,13.965,13.965,0,0,0-14.42,2.948,5.442,5.442,0,0,1-3.281,1.672,4.527,4.527,0,0,1-4.587-2.707,4.631,4.631,0,0,1,1.061-5.232A24.047,24.047,0,0,1,90.306,2265.733Z" transform="translate(-46.401 -2230.281)" fill="#4d3992"/>
        <path id="Trazado_208413" data-name="Trazado 208413" d="M85.389,2289.361a6.113,6.113,0,1,1,6.1-6.148A6.136,6.136,0,0,1,85.389,2289.361Z" transform="translate(-42.404 -2224.427)" fill="#4d3992"/>
      </g>
      <path id="Trazado_208414" data-name="Trazado 208414" d="M1145.521,2373.438V2288.9c0-30.465-24.075-55.084-53.6-54.812h0c-29.155.268-52.654,24.729-52.654,54.813v169.565c0,30.273-23.787,54.815-53.128,54.815h0c-29.341,0-53.128-24.542-53.128-54.815V2288.411c0-30.274-23.786-54.815-53.128-54.815h0c-29.341,0-53.127,24.541-53.127,54.815v170.056c0,30.273-23.787,54.815-53.128,54.815h0c-29.343,0-53.128-24.542-53.128-54.815V2288.411c0-30.274-23.787-54.815-53.128-54.815h0c-29.341,0-53.128,24.541-53.128,54.815v170.056c0,30.273-23.786,54.815-53.127,54.815h0c-29.341,0-53.127-24.542-53.127-54.815V2288.411c0-30.274-23.787-54.815-53.128-54.815h0c-29.341,0-53.128,24.541-53.128,54.815v170.056c0,30.273-23.786,54.815-53.128,54.815h0c-29.342,0-53.127-24.542-53.127-54.815V2288.411c0-30.274-23.787-54.815-53.128-54.815h0c-29.343,0-53.128,24.541-53.128,54.815v170.056c0,30.273-23.787,54.815-53.128,54.815h0c-29.341,0-53.128-24.542-53.128-54.815v-85.029" transform="translate(182.041 -1293.04)" fill="none" stroke="#12263f" stroke-miterlimit="10" stroke-width="3" stroke-dasharray="10 10 10 10 10 10" fill-rule="evenodd"/>
    </g>
  </g>
</svg>
