<svg xmlns="http://www.w3.org/2000/svg" width="198.253" height="203.185" viewBox="0 0 198.253 203.185">
  <g id="Grupo_144685" data-name="Grupo 144685" transform="translate(0 0)">
    <g id="Grupo_132648" data-name="Grupo 132648" transform="translate(0 0)">
      <circle id="Elipse_5335" data-name="Elipse 5335" cx="90.735" cy="90.735" r="90.735" transform="translate(8.261 7.924)" fill="#e5e1f1"/>
      <rect id="Rectángulo_43916" data-name="Rectángulo 43916" width="198.253" height="198.253" fill="none"/>
      <path id="Trazado_139920" data-name="Trazado 139920" d="M4105.16-7181.5a3.145,3.145,0,0,0-.1.313,2.088,2.088,0,0,0,1.368,2.615,2.08,2.08,0,0,0,.8.088,3.83,3.83,0,0,0,3.588-2.662,71.674,71.674,0,0,1,6.122-15.226,85.086,85.086,0,0,1,9.629-14.278l.7-.844.723-.825c.479-.553.975-1.092,1.474-1.628q1.486-1.619,3.071-3.145c.522-.515,1.071-1,1.6-1.506s1.095-.974,1.639-1.46c.564-.467,1.112-.947,1.69-1.4s1.138-.912,1.725-1.341,1.161-.87,1.756-1.28c.3-.209.588-.418.888-.617l.9-.592c.593-.4,1.211-.756,1.812-1.137.61-.357,1.219-.713,1.833-1.052s1.229-.668,1.85-.963c.313-.149.617-.312.928-.453l.928-.417c.156-.069.308-.142.465-.209l.487-.188.959-.384c.648-.232,1.288-.479,1.938-.69a66.347,66.347,0,0,1,15.885-3.11c5.393-.447,10.852-.454,16.521-.448,2.836,0,5.721.016,8.7-.032,1.483-.016,3-.067,4.527-.125.773-.039,1.539-.068,2.324-.118l2.285-.146c5.849-.381,11.9-.854,18.188-1.715a128.7,128.7,0,0,0,19.734-4.187,91.37,91.37,0,0,0,10.547-3.89,78.883,78.883,0,0,0,10.747-5.768c1.774-1.142,3.527-2.38,5.234-3.7.855-.66,1.695-1.349,2.526-2.052.417-.354.813-.695,1.231-1.074s.834-.755,1.24-1.147a64.014,64.014,0,0,0,8.644-10.042c.619-.893,1.216-1.795,1.774-2.713.3-.481.521-.854.767-1.264l.723-1.21c.479-.81.934-1.637,1.38-2.47s.865-1.681,1.293-2.526a67.263,67.263,0,0,0,4.132-10.58,56.738,56.738,0,0,0,2.125-10.967,52.377,52.377,0,0,0-6-29.674,66.818,66.818,0,0,0-10.89-15,80.483,80.483,0,0,0-6.71-6.277c-1.193-.991-2.424-1.954-3.721-2.9-.652-.474-1.315-.947-2.023-1.423-.355-.239-.716-.476-1.108-.723l-.618-.379-.351-.209-.216-.119-.328-.169c-11.034-5.028-26.734.194-35.066,11.66s-6.142,24.833,4.892,29.862l-.107-.058c-.025-.017-.008-.015-.008-.015h.009c.006-.008.05,0,.076,0a2.351,2.351,0,0,1,.235.047c.173.037.374.1.574.157.405.121.834.264,1.271.417.872.313,1.762.673,2.642,1.057a47.815,47.815,0,0,1,5.12,2.591,40.826,40.826,0,0,1,8.556,6.484,25.585,25.585,0,0,1,5.372,7.756,18.66,18.66,0,0,1,1.3,4.314,20.553,20.553,0,0,1,.284,4.724,26.32,26.32,0,0,1-.8,5.217c-.131.458-.242.918-.383,1.383s-.286.939-.454,1.412l-.49,1.378c-.12.363-.265.729-.406,1.089a20.7,20.7,0,0,1-2.353,4.2c-.117.17-.244.334-.368.5l-.424.531c-.292.355-.592.709-.911,1.056-.634.7-1.32,1.387-2.066,2.065a48.048,48.048,0,0,1-11.534,7.464q-1.716.835-3.537,1.594t-3.721,1.454c-2.53.93-5.155,1.786-7.84,2.58-5.377,1.592-10.985,2.928-16.765,4.222l-2.074.46c-.669.15-1.351.284-2.031.427-1.371.271-2.751.536-4.161.781-2.808.5-5.689.95-8.621,1.4-5.865.907-11.966,1.84-18.231,3.32a87.794,87.794,0,0,0-18.882,6.569c-.771.374-1.531.786-2.294,1.181-.756.425-1.5.828-2.257,1.274l-1.126.668c-.371.227-.729.461-1.1.692-.737.454-1.441.949-2.153,1.429a74.918,74.918,0,0,0-7.844,6.332,100.258,100.258,0,0,0-12.7,14.32,125.314,125.314,0,0,0-9.655,15.426,154.82,154.82,0,0,0-7.3,16.008Z" transform="translate(-4100.804 7367.355)" fill="#fdb74d"/>
      <path id="Trazado_139920-2" data-name="Trazado 139920-2" d="M4287.448-7289.1a56.851,56.851,0,0,0,2.125-10.966,52.377,52.377,0,0,0-6-29.675,66.845,66.845,0,0,0-10.889-15,80.4,80.4,0,0,0-6.711-6.276c-1.193-.992-2.424-1.954-3.72-2.9-.652-.474-1.316-.946-2.023-1.422-.355-.239-.716-.476-1.108-.724l-.618-.379-.352-.208-.216-.12-.327-.169c-11.034-5.027-26.734.194-35.066,11.66s-6.142,24.834,4.893,29.862l-.111-.068c-.025-.018-.008-.015-.008-.015h.009c.006-.008.05,0,.076,0a2.219,2.219,0,0,1,.235.046c.173.038.374.1.573.157.406.121.835.264,1.272.417.871.313,1.762.673,2.64,1.056a47.923,47.923,0,0,1,5.121,2.591,40.87,40.87,0,0,1,8.556,6.485,25.572,25.572,0,0,1,5.372,7.756,18.633,18.633,0,0,1,1.3,4.314,20.5,20.5,0,0,1,.284,4.724" transform="translate(-4095.917 7367.355)" fill="#fdb74d"/>
    </g>
    <g id="Grupo_156390" data-name="Grupo 156390" transform="translate(36.517 33.711)">
      <path id="Trazado_209292" data-name="Trazado 209292" d="M2326.811,4674.06a41.567,41.567,0,0,1,19.58.239c1.08.257,1.535.591,1.313,1.834-.312,1.748-.347,3.544-.5,5.319-4.052.013-8.1,0-12.155.055-1.012.013-2.426-.356-2.7,1.059-.275,1.389,1.139,1.661,2.079,2.087,3.045,1.376,6.26,2.381,9.173,4.049a11.28,11.28,0,0,1,3.639,15.533c-1.625,2.437-4.217,3.109-6.856,3.481a49.152,49.152,0,0,1-17.211-.994c-.989-.21-1.29-.626-1.118-1.666a34.3,34.3,0,0,0,.431-4.831c.024-1.107.472-1.315,1.472-1.277,3.4.13,6.8.186,10.206.244.753.013,1.508-.084,2.263-.124.722-.037,1.514-.084,1.662-.952.155-.9-.555-1.357-1.264-1.671-2.712-1.2-5.459-2.33-8.152-3.573-2.954-1.363-5.6-3.076-6.549-6.49a13.758,13.758,0,0,1,.283-8.122C2323.115,4676.088,2324.821,4674.916,2326.811,4674.06Z" transform="translate(-2301.483 -4538.619)" fill="#5038a1"/>
      <path id="Trazado_209293" data-name="Trazado 209293" d="M2328.749,4383.53c-.268-1.395.552-2.858-.27-4.218a1.878,1.878,0,0,0,.619-1.745q.031-14.106-.01-28.21c-.007-1.68-.432-2.077-2.138-2.1-3.353-.052-6.707,0-10.06-.031-.847-.008-1.757.125-2.417-.635a24.144,24.144,0,0,1,1.315-6.954,46.112,46.112,0,0,1,16.556-23.837c.865.074.874.845,1.1,1.4a12.283,12.283,0,0,0,2.515,4.283,16.97,16.97,0,0,1-2.85-6.214c-.235-1.013-.5-2.088.938-2.5,1.731-.493,3.289.063,3.606,1.453a11.867,11.867,0,0,0,2.517,5,4.433,4.433,0,0,1-1.41,6.645c-2.451,1.284-5.192,1.835-7.742,2.881-1.5.615-3.01,1.206-4.465,1.924a7.157,7.157,0,0,0-4,5.557c-.254,1.488-.05,1.731,1.428,1.784.919.033,1.834-.072,2.754-.071q21.24.017,42.48,0c.919,0,1.836.019,2.754.091,1.391.107,1.608-.161,1.383-1.565a7.459,7.459,0,0,0-4.557-6.055,88.14,88.14,0,0,0-8.472-3.257,15.4,15.4,0,0,1-3.425-1.453,4.4,4.4,0,0,1-1.169-6.59,10.832,10.832,0,0,0,2.392-4.536,2.355,2.355,0,0,1,2.568-1.948c2.915-.118,3.88-1.1,4.2-4.014.065-.58.018-1.209.607-1.593.479.008.961-.018,1.436.026,2.281.207,2.282.214,2.366-2.067a1.651,1.651,0,0,1,.3-1.2c.6.385.549,1,.549,1.592,0,2.8-.007,5.609,0,8.414a6.307,6.307,0,0,1-1.107,3.5c-.761,1.178-1.554,2.339-2.267,3.545-.878,1.483-.211,2.743,1.49,2.761,7.558.082,15.116.07,22.674.011a6.063,6.063,0,0,0,2.318-.653,2.545,2.545,0,0,1,1.692-.4c1.345,2.191,3.011,4.157,4.375,6.345a34.858,34.858,0,0,1,3.529,7.542c.4,1.21,1.234,2.277,1.23,3.621-.717.5-1.355.063-1.971-.21a31.407,31.407,0,0,1-3.609-1.847,2.448,2.448,0,0,0-2.741-.049,45.985,45.985,0,0,1-14.608,5.176c-2.485.5-2.674.9-2.45,3.411.846,9.421,4.852,17.353,11.129,24.3,1.532,1.7,3.311,3.1,4.873,4.737,1.055,1.107,2.469,1.181,3.818,1.471-.656,1.02-1.279,2.062-1.98,3.049-.467.655-.308.9.431.932-.218.867-.959.746-1.565.773-1.351.061-2.7-.009-4.055.029a5.15,5.15,0,0,1-3.576-1.257c-2.166-1.792-4.391-3.512-6.643-5.2a4.14,4.14,0,0,0-3.473-.934,5.766,5.766,0,0,1-2.408-.151,3.359,3.359,0,0,0-3.7,1.363,3.317,3.317,0,0,0,.371,3.8,52.692,52.692,0,0,0,9.178,8.653c.759.609,1.567,1.156,2.324,1.769.457.369.976.715.93,1.421a43.337,43.337,0,0,1-18.538,6.585c-8.066.83-15.9.215-23.452-3.04-2.034-.875-3.978-1.875-5.924-2.9-.028-.893.654-1.315,1.223-1.789,1.12-.932,2.265-1.834,3.41-2.735.862-.679,1.022-1.266.072-2.05-1.624-1.34-3.245-2.682-4.916-3.962-1.109-.849-1.294-.748-1.46.555-.239,1.874-.443,2.136-2.324,2.09C2331.216,4384.027,2329.862,4384.537,2328.749,4383.53Z" transform="translate(-2296.647 -4289.367)" fill="#bcaeed"/>
      <path id="Trazado_209294" data-name="Trazado 209294" d="M2380.663,4279.01q-.03.97-.059,1.941c-.085,2.667-1.739,4.354-4.421,4.247-1.534-.062-2.305.231-2.494,1.959a6.787,6.787,0,0,1-2.217,4.05,3.884,3.884,0,0,0,1.058,6.2c2.431,1.032,4.972,1.8,7.443,2.742,1.461.559,2.87,1.247,4.319,1.841,3.236,1.329,4.517,3.964,4.939,7.219.138,1.059-.223,1.475-1.3,1.473q-24.751-.052-49.5-.048c-1.215,0-1.622-.34-1.46-1.6.421-3.309,1.9-5.746,5.054-7.155,3.311-1.477,6.718-2.673,10.14-3.843,3.108-1.061,3.51-1.664,3.46-4.936a2.023,2.023,0,0,0-.708-1.689,7.855,7.855,0,0,1-2.612-4.9c-.068-.444.087-1.112-.555-1.206a6.673,6.673,0,0,0-3.045.028c-.417.136-.126.669-.058,1.016a15.361,15.361,0,0,0,3.093,6.874c.309.382.994.8.425,1.345-.641.612-1.045-.078-1.429-.507a17.93,17.93,0,0,1-3.224-6.284,9.6,9.6,0,0,0-1.364-4.687c-1.312-1.962-.762-5.915.782-7.742a2.759,2.759,0,0,0,.58-1.287c1.406-6.432,6.671-12.125,14.516-11.767,1.991.09,4.013-.186,5.967.327,5.385,1.414,8.671,5,10.318,10.193a7.526,7.526,0,0,0,1.53,3.3A4.391,4.391,0,0,1,2380.663,4279.01Z" transform="translate(-2311.808 -4261.348)" fill="#5038a1"/>
      <path id="Trazado_209295" data-name="Trazado 209295" d="M2500.943,4536.345c-4.169-3.25-8.4-6.432-11.934-10.409-.857-.964-1.766-1.886-1.841-3.315a3.574,3.574,0,0,1,4.636-3.829,3.879,3.879,0,0,0,2.466.1,3.454,3.454,0,0,1,3.333.757c2.5,1.978,5.028,3.913,7.5,5.914a3.25,3.25,0,0,0,2.5.858c1.979-.19,3.986.029,5.957-.352a14.038,14.038,0,0,0,5.561-.833,16.639,16.639,0,0,1,7.959-.922,11.5,11.5,0,0,1,6.658,3.38,9.665,9.665,0,0,0,2.553,2.221c.4.2.766.572.516,1.038-.307.573-.824.295-1.28.13a3.348,3.348,0,0,1-1.373-1.1c-3.861-4.605-8.7-5.5-14.182-3.616a33.163,33.163,0,0,1-10.873,1.351,21.233,21.233,0,0,0-2.266.072c-1.209.134-2.328.575-2.312,2a2.374,2.374,0,0,0,2.207,2.412,40.1,40.1,0,0,0,4.522.259c3.135.068,6.268-.019,9.4-.239.541-.038,1.408-.338,1.5.471.108.964-.83.768-1.431.817a111.774,111.774,0,0,1-12.955.156c-2.82-.1-4.188-1.274-4.561-3.991a1.87,1.87,0,0,0-.856-1.278c-3.109-2.512-6.211-5.033-9.341-7.521-1.521-1.208-2.923-1.237-3.942-.179-.924.961-.8,2.372.44,3.761,5.634,6.312,12.411,11.2,19.613,15.533,2.564,1.542,5.344.926,8.065.519,2.669-.4,5.332-.842,8-1.279,1.91-.313,3.473.528,5,1.484.375.234.741.577.458,1.062s-.782.373-1.123.089c-2.467-2.05-5.207-1.208-7.908-.783-2.292.361-4.577.778-6.875,1.09a10.436,10.436,0,0,1-7.418-1.653C2505.193,4539.11,2503.064,4537.734,2500.943,4536.345Z" transform="translate(-2413.225 -4434.411)" fill="#5038a1"/>
      <path id="Trazado_209296" data-name="Trazado 209296" d="M2291.427,4435.52q6.24.036,12.48.074c2.132.015,2.778.665,2.779,2.834q.01,14.175-.007,28.352c0,.783.331,1.967-1.246,1.465q-.023-14.51-.047-29.022c0-2.324,0-2.325-2.324-2.327-6.545,0-13.091.028-19.636-.024-1.323-.011-1.809.379-1.8,1.747q.056,20.43-.013,40.861c-.006,1.382.516,1.554,1.686,1.547,6.708-.045,13.416-.023,20.124-.023.378,0,.758-.008,1.135.007.5.021,1.062.078,1.009.745-.045.565-.564.55-1.007.549q-3.489,0-6.978,0-7.465,0-14.931,0c-1.928,0-2.307-.356-2.308-2.253q-.01-20.835,0-41.671c0-2.168.642-2.77,2.812-2.788Q2287.291,4435.558,2291.427,4435.52Z" transform="translate(-2273.601 -4378.299)" fill="#5038a1"/>
      <path id="Trazado_209297" data-name="Trazado 209297" d="M2530.746,4445.83a2.849,2.849,0,0,1-3.417-.51c-8.506-7.1-14.61-15.683-16.522-26.829-.246-1.431-.263-2.9-.448-4.343-.223-1.744.663-2.389,2.256-2.646a51.041,51.041,0,0,0,9.973-2.727,24.284,24.284,0,0,0,5.219-2.572,2.451,2.451,0,0,1,3.118.059,20.436,20.436,0,0,0,5.377,2.576,49.022,49.022,0,0,0,9.309,2.638c2.556.516,2.77.79,2.577,3.434-.9,12.406-7.109,21.918-16.245,29.844C2531.538,4445.105,2531.146,4445.47,2530.746,4445.83Z" transform="translate(-2428.863 -4358.149)" fill="#5038a1"/>
      <path id="Trazado_209298" data-name="Trazado 209298" d="M2501.454,4308.272a7.841,7.841,0,0,1-5.4,1.76c-6.979-.058-13.958-.024-20.937-.022-.98,0-1.98.083-2.537-1a2.52,2.52,0,0,1,.351-3.014,13.335,13.335,0,0,0,3.146-10.654,53.683,53.683,0,0,1,.028-5.832,8.781,8.781,0,0,1,2.5-4.963,6.2,6.2,0,0,1,4.5-1.85c4.317.038,8.647.214,12.95-.04,5.1-.3,7.863,3.917,7.993,7.707.137,3.988.092,7.983.006,11.972A8.927,8.927,0,0,1,2501.454,4308.272Z" transform="translate(-2403.148 -4275.095)" fill="#5038a1"/>
      <path id="Trazado_209299" data-name="Trazado 209299" d="M2327.63,4541.814c1.4.019,2.8-.011,4.193.07.961.055,1.327-.232,1.321-1.247,0-.789-.516-1.932.448-2.316.886-.354,1.458.724,2.116,1.22,1.631,1.229,3.2,2.536,4.793,3.82,1.609,1.3,1.594,1.3.042,2.561-1.748,1.423-3.475,2.873-5.211,4.31-.143.074-.29.141-.428.225-.442.266-.776.88-1.4.6-.646-.29-.378-.946-.4-1.447-.074-2.134-.06-2.158-2.244-2.164-5.463-.018-10.926-.039-16.387.006-1.137.01-1.6-.233-1.635-1.5-.1-4.087-.161-4.08,3.918-4.088C2320.385,4541.858,2324.007,4541.833,2327.63,4541.814Z" transform="translate(-2295.528 -4447.651)" fill="#5038a1"/>
      <path id="Trazado_209300" data-name="Trazado 209300" d="M2298.207,4477.258c-3.133,0-6.266.013-9.4-.013-.534,0-1.356.208-1.326-.719.025-.763.746-.65,1.258-.65q9.561-.018,19.122,0c.544,0,1.387-.153,1.333.732-.051.845-.885.625-1.427.63-3.187.025-6.374.012-9.561.012Z" transform="translate(-2278.425 -4405.536)" fill="#624caa"/>
      <path id="Trazado_209301" data-name="Trazado 209301" d="M2297.52,4518.193c3.19,0,6.38-.012,9.57.011.485,0,1.254-.253,1.3.545.048.891-.758.748-1.318.749q-9.49.015-18.978,0c-.555,0-1.388.177-1.375-.687.013-.905.873-.6,1.4-.6C2291.248,4518.178,2294.384,4518.192,2297.52,4518.193Z" transform="translate(-2277.908 -4434.088)" fill="#553ea4"/>
      <path id="Trazado_209302" data-name="Trazado 209302" d="M2293.636,4492.24a2.494,2.494,0,0,1-2.516,2.564,2.466,2.466,0,0,1-2.629-2.436,2.591,2.591,0,0,1,2.575-2.7A2.68,2.68,0,0,1,2293.636,4492.24Z" transform="translate(-2279.106 -4414.851)" fill="#543ca3"/>
      <path id="Trazado_209303" data-name="Trazado 209303" d="M2291.147,4445.1a2.588,2.588,0,0,1,2.495,2.659,2.615,2.615,0,0,1-2.657,2.512,2.589,2.589,0,0,1-2.479-2.673A2.547,2.547,0,0,1,2291.147,4445.1Z" transform="translate(-2279.116 -4384.768)" fill="#543ca3"/>
      <path id="Trazado_209304" data-name="Trazado 209304" d="M2342.262,4530.907a2.492,2.492,0,1,1-4.967-.41,2.493,2.493,0,0,1,4.967.41Z" transform="translate(-2312.049 -4440.906)" fill="#523aa2"/>
      <path id="Trazado_209305" data-name="Trazado 209305" d="M2260.917,4444.224c.043.965.107,2.2.148,3.436.014.441-.039.934-.6.988-.576.054-.683-.432-.723-.869a42.262,42.262,0,0,1-.008-6.608c.027-.426.136-.924.707-.9s.641.506.628.948C2261.044,4442.127,2260.981,4443.04,2260.917,4444.224Z" transform="translate(-2259.612 -4381.503)" fill="#5b44a7"/>
      <path id="Trazado_209306" data-name="Trazado 209306" d="M2610.362,4340.634a3.26,3.26,0,0,1,.717.612c1.15,1.807,2.274,3.63,3.4,5.456.258.419.524.909-.067,1.248-.613.351-.853-.2-1.1-.6-1.115-1.766-2.213-3.542-3.325-5.31C2609.617,4341.464,2609.516,4340.971,2610.362,4340.634Z" transform="translate(-2495.956 -4314.244)" fill="#5740a5"/>
      <path id="Trazado_209307" data-name="Trazado 209307" d="M2628.853,4517.5c-.754-.149-.849-.584-.652-1.107.792-2.106,1.6-4.208,2.412-6.31.145-.378.371-.7.832-.568a.636.636,0,0,1,.438.889,55.965,55.965,0,0,1-2.516,6.612C2629.267,4517.231,2629,4517.366,2628.853,4517.5Z" transform="translate(-2508.377 -4428.232)" fill="#5740a5"/>
      <path id="Trazado_209308" data-name="Trazado 209308" d="M2478.45,4640.92c-.462-.084-.938-.091-1-.66s.374-.66.83-.746c2.1-.393,4.2-.812,6.3-1.219.435-.084.91-.151,1.1.369s-.15.788-.631.889Q2481.752,4640.24,2478.45,4640.92Z" transform="translate(-2406.664 -4515.15)" fill="#5740a5"/>
      <path id="Trazado_209309" data-name="Trazado 209309" d="M2437.6,4644.589c-1.075-.061-2.151-.117-3.225-.185-.5-.032-1.039-.094-1-.769.038-.611.558-.56.982-.542,2.2.093,4.409.2,6.614.3.4.019.793.1.768.606a.7.7,0,0,1-.753.681c-1.129.016-2.259,0-3.388,0Z" transform="translate(-2376.919 -4518.421)" fill="#5740a5"/>
      <path id="Trazado_209310" data-name="Trazado 209310" d="M2327.953,4297.6c-.115-.08-.338-.161-.432-.317a.658.658,0,0,1,.162-.874,52.382,52.382,0,0,1,5.667-4.29.583.583,0,0,1,.859.11.611.611,0,0,1-.054.88c-1.919,1.478-3.861,2.926-5.8,4.378A1.473,1.473,0,0,1,2327.953,4297.6Z" transform="translate(-2305.387 -4281.402)" fill="#553ea4"/>
      <path id="Trazado_209311" data-name="Trazado 209311" d="M2634.432,4386.828a.62.62,0,0,1-.416.773c-.457.166-.711-.085-.852-.492-.733-2.136-1.471-4.271-2.191-6.412-.122-.363-.151-.79.265-.993a.631.631,0,0,1,.909.4A57.174,57.174,0,0,1,2634.432,4386.828Z" transform="translate(-2510.255 -4340.567)" fill="#553ea4"/>
      <path id="Trazado_209312" data-name="Trazado 209312" d="M2265.353,4491.748c.118.314.113.645-.27.782a.625.625,0,0,1-.892-.429,51.81,51.81,0,0,1-1.617-6.892.6.6,0,0,1,.605-.772.613.613,0,0,1,.675.55Q2264.6,4488.368,2265.353,4491.748Z" transform="translate(-2261.602 -4411.322)" fill="#553ea4"/>
      <path id="Trazado_209313" data-name="Trazado 209313" d="M2322.29,4592.532c-.227.76-.675.761-1.133.413a45.263,45.263,0,0,1-5.165-4.627c-.291-.3-.425-.648-.1-.994a.615.615,0,0,1,.88-.042q2.654,2.354,5.266,4.755A1.514,1.514,0,0,1,2322.29,4592.532Z" transform="translate(-2297.478 -4480.638)" fill="#553ea4"/>
      <path id="Trazado_209314" data-name="Trazado 209314" d="M2528.047,4623.263c-.022.468-.334.623-.62.754-1.912.875-3.823,1.75-5.752,2.583-.469.2-1.12.483-1.378-.24-.222-.624.392-.777.832-.973q2.8-1.256,5.6-2.516C2527.325,4622.606,2527.881,4622.413,2528.047,4623.263Z" transform="translate(-2435.562 -4504.624)" fill="#553ea4"/>
      <path id="Trazado_209315" data-name="Trazado 209315" d="M2303.225,4321.333c-.2.3-.361.57-.558.812q-1.946,2.364-3.907,4.718c-.309.372-.617.866-1.171.438s-.187-.885.114-1.256q1.984-2.438,4.01-4.839c.274-.325.612-.671,1.1-.394C2302.978,4320.9,2303.067,4321.124,2303.225,4321.333Z" transform="translate(-2285.059 -4300.794)" fill="#553ea4"/>
      <path id="Trazado_209316" data-name="Trazado 209316" d="M2460.608,4259.468c1.494.152,2.99.3,4.484.462.456.049.885.208.863.756-.025.634-.55.567-.963.536-2.2-.162-4.389-.349-6.583-.523-.413-.032-.8-.185-.808-.619-.008-.549.448-.676.913-.664.7.021,1.392.066,2.089.1Z" transform="translate(-2393.27 -4259.416)" fill="#553ea4"/>
      <path id="Trazado_209317" data-name="Trazado 209317" d="M2396.741,4636.8c-1.706-.5-3.833-1.1-5.949-1.744-.4-.122-.874-.331-.64-.913.215-.534.64-.434,1.093-.306q3.116.874,6.245,1.7c.468.124.868.321.759.85C2398.131,4636.96,2397.617,4636.861,2396.741,4636.8Z" transform="translate(-2347.694 -4512.112)" fill="#543ca3"/>
      <path id="Trazado_209318" data-name="Trazado 209318" d="M2566.4,4598.718a1.172,1.172,0,0,1-.552.878c-1.675,1.271-3.347,2.545-5.037,3.8-.382.282-.87.634-1.271.084s.112-.868.491-1.156c1.671-1.274,3.351-2.539,5.023-3.81.314-.239.644-.447,1.027-.208A1.34,1.34,0,0,1,2566.4,4598.718Z" transform="translate(-2461.985 -4488.118)" fill="#553ea4"/>
      <path id="Trazado_209319" data-name="Trazado 209319" d="M2580.875,4307.629a4,4,0,0,1,.689.445q2.29,2.254,4.555,4.535c.351.353.7.771.264,1.249-.516.56-.857.01-1.178-.305-1.531-1.5-3.039-3.024-4.573-4.521-.3-.3-.485-.59-.267-.978C2580.458,4307.891,2580.671,4307.794,2580.875,4307.629Z" transform="translate(-2476.081 -4291.963)" fill="#553ea4"/>
      <path id="Trazado_209320" data-name="Trazado 209320" d="M2643.533,4467.827c-.289,1.91-.593,3.926-.9,5.941-.079.521-.256,1-.909.82-.554-.149-.459-.629-.394-1.069.287-1.964.558-3.93.847-5.894.079-.535-.123-1.364.817-1.235C2643.783,4466.5,2643.435,4467.223,2643.533,4467.827Z" transform="translate(-2517.267 -4399.131)" fill="#5740a5"/>
      <path id="Trazado_209321" data-name="Trazado 209321" d="M2262.651,4403.887c.529-2.135,1.055-4.271,1.592-6.4.111-.441.325-.865.874-.71s.5.644.4,1.073c-.491,2.09-1,4.176-1.494,6.266-.1.438-.21.892-.8.792C2262.657,4404.807,2262.645,4404.358,2262.651,4403.887Z" transform="translate(-2261.663 -4352.12)" fill="#553ea4"/>
      <path id="Trazado_209322" data-name="Trazado 209322" d="M2350.921,4614.647a.493.493,0,0,1,.16.024c2.175,1.19,4.354,2.373,6.515,3.588a.552.552,0,0,1,.117.852.642.642,0,0,1-.867.185,58.6,58.6,0,0,1-6.1-3.339.765.765,0,0,1-.38-.818A.59.59,0,0,1,2350.921,4614.647Z" transform="translate(-2320.869 -4499.224)" fill="#553ea4"/>
      <path id="Trazado_209323" data-name="Trazado 209323" d="M2275.858,4363.943c-.637-.11-.631-.631-.414-1.082.977-2.032,2-4.041,3.017-6.054a.7.7,0,0,1,.937-.395c.453.18.46.562.271.941q-1.539,3.105-3.1,6.2A.667.667,0,0,1,2275.858,4363.943Z" transform="translate(-2270.21 -4324.855)" fill="#553ea4"/>
      <path id="Trazado_209324" data-name="Trazado 209324" d="M2509.445,4268.414c-.123.766-.575.82-1.091.657-2.156-.676-4.308-1.37-6.459-2.062a.645.645,0,0,1-.508-.858.594.594,0,0,1,.784-.381,36.223,36.223,0,0,1,6.892,2.246C2509.232,4268.09,2509.341,4268.3,2509.445,4268.414Z" transform="translate(-2422.804 -4263.687)" fill="#553ea4"/>
      <path id="Trazado_209325" data-name="Trazado 209325" d="M2644.512,4428.426c-.39.7.608,1.979-.551,2.071-1.278.1-.723-1.27-.828-2.011-.234-1.652-.344-3.323-.541-4.982-.061-.509-.176-1.032.484-1.154.712-.132.756.492.817.948C2644.123,4425.006,2644.31,4426.721,2644.512,4428.426Z" transform="translate(-2518.12 -4369.396)" fill="#553ea4"/>
      <path id="Trazado_209326" data-name="Trazado 209326" d="M2335.818,4446.671c0-.7-.007-1.4,0-2.094.006-.411.147-.763.62-.788a.671.671,0,0,1,.722.709c.026,1.555.015,3.109-.02,4.664a.639.639,0,0,1-.612.643c-.486.029-.668-.321-.684-.72-.031-.8-.009-1.609-.009-2.415Z" transform="translate(-2311.055 -4383.881)" fill="#6954ae"/>
      <path id="Trazado_209327" data-name="Trazado 209327" d="M2337.267,4491.545c-.037.747-.056,1.5-.121,2.238a.649.649,0,1,1-1.3-.056q-.031-2.249-.007-4.5c0-.385.125-.783.609-.8.571-.021.709.424.729.864.035.748.01,1.5.01,2.247Z" transform="translate(-2311.066 -4414.02)" fill="#6954ae"/>
      <path id="Trazado_209328" data-name="Trazado 209328" d="M2348.972,4446.948c0,.7.013,1.4,0,2.1-.009.385-.062.79-.584.792a.622.622,0,0,1-.666-.581q-.046-2.418.007-4.839a.617.617,0,0,1,.688-.55c.415,0,.543.308.549.653C2348.981,4445.333,2348.971,4446.141,2348.972,4446.948Z" transform="translate(-2319.077 -4383.938)" fill="#5b44a7"/>
      <path id="Trazado_209329" data-name="Trazado 209329" d="M2348.917,4491.513c0,.75,0,1.5,0,2.25,0,.357-.156.633-.542.669a.621.621,0,0,1-.731-.66q-.039-2.247,0-4.494c.006-.387.176-.75.66-.755.634-.006.611.481.621.9.017.695,0,1.392,0,2.086Z" transform="translate(-2319.025 -4414.082)" fill="#5942a6"/>
      <path id="Trazado_209330" data-name="Trazado 209330" d="M2448.639,4685.271c-.446-2.55-.091-5.121-.2-7.68-.035-.8-.064-1.6-.1-2.4.4.234.367.63.365,1Q2448.676,4680.731,2448.639,4685.271Z" transform="translate(-2387.018 -4540.094)" fill="#e3dff0"/>
      <path id="Trazado_209331" data-name="Trazado 209331" d="M2474.294,4707.15c-1.823-6.154-3.488-12.354-5.283-18.516-1.19-4.085-2.054-8.271-3.68-12.226a5.17,5.17,0,0,0-3.858-1.319c-2.7.078-5.4.015-8.107.025-2.482.007-3.6.864-4.309,3.285q-.663,2.246-1.325,4.5c-.275.581-.814.983-1,1.643-1.88,6.86-4.076,13.635-5.672,20.61a23.979,23.979,0,0,0-.163-2.746c-.1-2.158-.473-2.521-2.629-2.555-2.756-.043-5.513.038-8.268-.033-1.955-.051-2.358-.472-2.389-2.442-.047-3.022.026-6.048-.036-9.069-.022-1.055.158-2.179-.6-3.107l.01,0a13.51,13.51,0,0,1-.126-3.037c-.108-2.347.195-4.7-.172-7.044q-5.178.009-10.355.016c-.024,8.758-.071,17.514-.065,26.271,0,4.324,2.742,7.338,7.09,7.452,9,.237,18.007-.447,27.011-.048.919.042,1.076-.487,1.225-1.137q.583-2.524,1.155-5.047c.154-.68.4-1.151,1.267-1.125,2.324.067,4.652.078,6.978.045.96-.014,1.3.4,1.47,1.3.3,1.587.835,3.133,1.088,4.725.171,1.073.682,1.26,1.627,1.243,2.6-.05,5.2-.089,7.79.007C2474.365,4708.872,2474.728,4708.613,2474.294,4707.15Zm-15.216-13.088c-.482-.046-.972-.008-1.458-.008-2.923.141-2.942.136-2.281-2.609.594-2.463,1.18-4.928,1.53-7.44.061-.435.05-.871.681-.885s.634.417.723.848c.615,2.953,1.2,5.915,1.893,8.852C2460.426,4693.917,2460.049,4694.156,2459.078,4694.062Z" transform="translate(-2365.369 -4540.024)" fill="#5038a1"/>
      <path id="Trazado_209332" data-name="Trazado 209332" d="M2384.7,4482.665a13.727,13.727,0,0,1-13.645-11.483c-.241-1.473-.74-2.094-2.236-1.834a7.4,7.4,0,0,1-1.618.011c-.45-.023-1.12.154-1.124-.561,0-.747.662-.72,1.206-.728a11.047,11.047,0,0,1,1.941.014c1.3.214,1.6-.48,1.792-1.581,1-5.691,4.319-9.5,9.834-11.074a13.123,13.123,0,0,1,14.361,4.227c3.89,4.5,4.509,9.671,2.07,15.1A13.749,13.749,0,0,1,2384.7,4482.665Z" transform="translate(-2331.486 -4391.312)" fill="#5038a1"/>
      <path id="Trazado_209333" data-name="Trazado 209333" d="M2406.724,4295.662c1.467,6.114-2.05,9.663-6.547,12.722a4.806,4.806,0,0,1-5.885.037c-1.527-1.11-2.979-2.331-4.409-3.566a6.881,6.881,0,0,1-2.33-5.172,57.209,57.209,0,0,1,.111-8.9,7.8,7.8,0,0,1,7.893-7.094q1.623-.023,3.246,0a7.827,7.827,0,0,1,7.914,7.761C2406.766,4292.851,2406.724,4294.257,2406.724,4295.662Z" transform="translate(-2345.903 -4275.791)" fill="#fefefe"/>
      <path id="Trazado_209334" data-name="Trazado 209334" d="M2431.413,4384.814c-3.56,0-7.12-.031-10.68.018-1.071.015-1.542-.239-1.449-1.424.113-1.447.05-2.911.019-4.365-.015-.757.155-1.148,1.042-1.248a9.889,9.889,0,0,0,6.039-3.156c.338-.346.566-.77,1.2-.519,4.247,1.695,8.723,2.8,12.749,5.068a6.333,6.333,0,0,1,2.97,4.411c.205.842.026,1.241-1.041,1.217-3.614-.085-7.229-.033-10.844-.033Z" transform="translate(-2367.395 -4336.799)" fill="#b6abd8"/>
      <path id="Trazado_209335" data-name="Trazado 209335" d="M2353.368,4385.176c-3.56,0-7.121-.048-10.68.026-1.242.025-1.567-.443-1.255-1.524a6.559,6.559,0,0,1,3.138-4.311c3.871-2.079,8.11-3.2,12.177-4.773a1.244,1.244,0,0,1,1.428.476,10.023,10.023,0,0,0,6.26,3.062c.793.09.975.444.961,1.149-.03,1.618-.035,3.236,0,4.854.017.765-.208.975-1.022.961-3.669-.062-7.34-.027-11.01-.027Z" transform="translate(-2314.772 -4337.115)" fill="#b6abd8"/>
      <path id="Trazado_209336" data-name="Trazado 209336" d="M2374.048,4276.882a12.64,12.64,0,0,1,11.8-10.6c1.565-.046,3.134-.051,4.7,0a12.7,12.7,0,0,1,11.678,10.6c-.92,0-1.832-.043-2.738.014-.718.046-1.028-.285-1.326-.892a8.911,8.911,0,0,0-8.972-5.392c-.971.037-1.945,0-2.917.009a8.077,8.077,0,0,0-7.564,4.41,3.023,3.023,0,0,1-3.539,1.858A9.447,9.447,0,0,0,2374.048,4276.882Z" transform="translate(-2336.865 -4264.026)" fill="#e0dbee"/>
      <path id="Trazado_209337" data-name="Trazado 209337" d="M2395.972,4356.82c4.154,4.29,8.142,4.281,12.3,0,.015,1.776-.072,3.18.875,4.338.388.475-.135.772-.409,1.074-3.281,3.615-10.03,3.667-13.447.1-.268-.279-.8-.534-.321-1.043C2396.047,4360.156,2395.984,4358.734,2395.972,4356.82Z" transform="translate(-2350.859 -4325.171)" fill="#fefefe"/>
      <path id="Trazado_209338" data-name="Trazado 209338" d="M2450.523,4306.9a8.3,8.3,0,0,1,.024-1.768c.18-.808-.687-1.945.471-2.4,1.532-.6,4.027.283,4.511,1.6a7.25,7.25,0,0,1-.038,5.352c-.532,1.287-3.244,1.983-4.587,1.382-.5-.222-.365-.6-.37-.94-.016-1.073-.006-2.148-.006-3.223Z" transform="translate(-2388.41 -4288.525)" fill="#fdb952"/>
      <path id="Trazado_209339" data-name="Trazado 209339" d="M2372.472,4306.681a12.729,12.729,0,0,1-.024,2.1c-.133.787.641,1.95-.711,2.285-1.885.468-3.5-.085-4.06-1.423a6.987,6.987,0,0,1-.093-5.2c.532-1.466,3.157-2.38,4.589-1.75.545.24.441.667.419,1.087-.05.967-.111,1.933-.167,2.9Z" transform="translate(-2332.194 -4288.494)" fill="#fdb952"/>
      <path id="Trazado_209340" data-name="Trazado 209340" d="M2509.53,4523.244a1.816,1.816,0,0,1,2.19.291q3.708,2.859,7.376,5.771c.266.211.937.348.379.94a.752.752,0,0,1-1.229.027c-.64-.573-1.346-1.073-2.016-1.614C2514.027,4526.882,2511.826,4525.1,2509.53,4523.244Z" transform="translate(-2428.326 -4437.351)" fill="#fdb23f"/>
      <path id="Trazado_209341" data-name="Trazado 209341" d="M2514.332,4417.283c-.212-.962.228-1.418,1.4-1.638,5.43-1.018,10.719-2.491,15.462-5.462a1.325,1.325,0,0,1,1.613.071c4.664,2.891,9.859,4.349,15.179,5.336,1.468.272,1.714.817,1.615,2.1a39.285,39.285,0,0,1-8.7,21.583,49.242,49.242,0,0,1-7.855,7.909c-.585.475-1.09.836-1.841.249C2522.729,4440.8,2515,4430.018,2514.332,4417.283Z" transform="translate(-2431.532 -4361.031)" fill="#fdb952"/>
      <path id="Trazado_209342" data-name="Trazado 209342" d="M2488.784,4311.548c-3.622,0-7.244.005-10.867-.007-.516,0-1.138.181-1.471-.4a1.348,1.348,0,0,1,.355-1.628c2.89-3.236,3.677-7.036,3.26-11.256a25.4,25.4,0,0,1,.106-5.5c.475-3.936,2.811-5.916,6.72-5.918q5.92,0,11.839,0c3.985,0,6.634,2.42,6.764,6.445.127,3.939.134,7.889-.009,11.827-.144,4-2.834,6.429-6.805,6.433Q2493.731,4311.552,2488.784,4311.548Z" transform="translate(-2405.888 -4277.929)" fill="#fee8c6"/>
      <path id="Trazado_209343" data-name="Trazado 209343" d="M2337.242,4544.513c1.73,1.372,3.275,2.611,4.837,3.829.564.44.4.759-.073,1.13-1.521,1.188-3.029,2.4-4.524,3.582-.142-.1-.283-.151-.29-.215-.264-2.47-.262-2.473-2.794-2.473-5.343,0-10.688-.062-16.028.052-1.542.031-1.4-.789-1.518-1.781-.143-1.229.5-1.257,1.43-1.252,5.342.029,10.686.02,16.029.007C2337.493,4547.385,2336.9,4547.737,2337.242,4544.513Z" transform="translate(-2298.24 -4451.878)" fill="#fdb952"/>
      <path id="Trazado_209344" data-name="Trazado 209344" d="M2295.106,4495.072c-.157.7-.48,1.229-1.268,1.219a1.242,1.242,0,1,1,.035-2.482C2294.605,4493.834,2294.977,4494.375,2295.106,4495.072Z" transform="translate(-2281.861 -4417.648)" fill="#3a00ff"/>
      <path id="Trazado_209345" data-name="Trazado 209345" d="M2293.572,4449.35c.934-.034,1.414.4,1.456,1.125a1.238,1.238,0,0,1-2.47.146A1.108,1.108,0,0,1,2293.572,4449.35Z" transform="translate(-2281.851 -4387.635)" fill="#4812ff"/>
      <path id="Trazado_209346" data-name="Trazado 209346" d="M2342.379,4532.236c.776.042,1.291.336,1.306,1.146a1.08,1.08,0,0,1-1.181,1.216,1.024,1.024,0,0,1-1.16-1.056A1.081,1.081,0,0,1,2342.379,4532.236Z" transform="translate(-2314.784 -4443.59)" fill="#fdb74d"/>
      <path id="Trazado_209347" data-name="Trazado 209347" d="M2405.246,4499.633h.162c3.141,0,3.118,0,2.965,3.107-.035.718-.183,1.054-.989,1.082a16.9,16.9,0,0,0-3.361.405c-.9.217-1.185-.124-1.308-.881a1.326,1.326,0,0,0-.057-.151C2401.622,4499.76,2401.713,4499.633,2405.246,4499.633Z" transform="translate(-2355.791 -4421.581)" fill="#fedda9"/>
      <path id="Trazado_209348" data-name="Trazado 209348" d="M2425.287,4501.469c-.49-1.757.364-2.159,1.924-1.975a11.548,11.548,0,0,0,2.739,0c1.453-.185,1.63.545,1.394,1.683-.043.21-.1.417-.144.628-.533,2.476-.533,2.476-2.958,2.082a3.673,3.673,0,0,0-.954-.141C2425.528,4503.939,2424.8,4503.232,2425.287,4501.469Z" transform="translate(-2371.355 -4421.459)" fill="#fee3ba"/>
      <path id="Trazado_209349" data-name="Trazado 209349" d="M2448.864,4499.42c2.684,0,2.692,0,2.126,2.358a12.407,12.407,0,0,1-.493,1.529c-.953,2.485-1.644,2.685-4.025,1.358-.591-.328-.377-.663-.287-1.047a8.606,8.606,0,0,0,.528-2.174C2446.634,4499.613,2447.459,4499.064,2448.864,4499.42Z" transform="translate(-2385.487 -4421.368)" fill="#fed9a1"/>
      <path id="Trazado_209350" data-name="Trazado 209350" d="M2387.245,4499.419c1.269-.331,2.09.121,1.968,1.855a4.175,4.175,0,0,0,.377,1.886c.476,1.085.1,1.472-.959,1.788-2.209.656-2.2.722-3.064-1.447a13.818,13.818,0,0,1-.509-1.526C2384.365,4499.421,2384.371,4499.419,2387.245,4499.419Z" transform="translate(-2344.041 -4421.368)" fill="#fece85"/>
      <path id="Trazado_209351" data-name="Trazado 209351" d="M2386.941,4484.349c-2.545.009-2.546.009-1.9-2.43.069-.26.149-.518.233-.775.79-2.406,2.269-2.859,4.36-1.365.609.436.2.974.038,1.265-.6,1.045.325,2.7-1.278,3.281A4.508,4.508,0,0,1,2386.941,4484.349Z" transform="translate(-2344.042 -4407.598)" fill="#fee5be"/>
      <path id="Trazado_209352" data-name="Trazado 209352" d="M2428.161,4487.312h-.809c-2.4,0-2.777-.5-2.337-2.907.108-.591.407-.634.87-.674a26.8,26.8,0,0,0,3.2-.367c1.073-.225,1.518.129,1.765,1.174C2431.51,4487.321,2431.549,4487.312,2428.161,4487.312Z" transform="translate(-2371.164 -4410.554)" fill="#fee8c6"/>
      <path id="Trazado_209353" data-name="Trazado 209353" d="M2448.931,4484.133c-1.438.4-2.236-.281-2.172-2.013,0-.1-.07-.208-.069-.311.006-.737-.823-1.663-.258-2.094a9,9,0,0,1,2.967-1.1c.463-.135.626.335.762.669a21.66,21.66,0,0,1,.893,2.4C2451.723,4484.125,2451.7,4484.131,2448.931,4484.133Z" transform="translate(-2385.596 -4407.374)" fill="#fee5be"/>
      <path id="Trazado_209354" data-name="Trazado 209354" d="M2405.494,4487.352h-.324c-3.161,0-3.122.009-2.211-3.054.239-.8.564-1.041,1.352-.9a12.8,12.8,0,0,0,2.721.309c1.271-.052,1.646.415,1.583,1.668C2408.515,4487.349,2408.6,4487.353,2405.494,4487.352Z" transform="translate(-2356.02 -4410.594)" fill="#fee8c6"/>
      <path id="Trazado_209355" data-name="Trazado 209355" d="M2425.376,4458.719a15.585,15.585,0,0,1,4.655,6.463c-.064.071-.118.195-.191.208-4.465.762-4.465.761-4.464-3.671Z" transform="translate(-2371.515 -4393.961)" fill="#fed9a1"/>
      <path id="Trazado_209356" data-name="Trazado 209356" d="M2412,4458.19c0,2.527-.01,4.547.007,6.566,0,.553-.226.775-.766.738-1.267-.088-2.943.21-3.615-.726-.555-.773.736-1.948,1.307-2.888A15.548,15.548,0,0,1,2412,4458.19Z" transform="translate(-2359.443 -4393.604)" fill="#fee5be"/>
      <path id="Trazado_209357" data-name="Trazado 209357" d="M2411.934,4522.816a17.881,17.881,0,0,1-4.367-5.267c-.322-.582-.254-.9.441-.992.053-.007.107-.011.161-.022,3.767-.84,3.767-.84,3.765,3.014C2411.933,4520.519,2411.934,4521.487,2411.934,4522.816Z" transform="translate(-2359.368 -4432.688)" fill="#fece85"/>
      <path id="Trazado_209358" data-name="Trazado 209358" d="M2425.38,4523.02c0-2.157,0-3.975,0-5.795,0-.478.047-.868.684-.794,1.122.131,2.255.194,3.365.39.92.163.344.726.146,1.074A18.95,18.95,0,0,1,2425.38,4523.02Z" transform="translate(-2371.516 -4432.915)" fill="#fed9a1"/>
      <path id="Trazado_209359" data-name="Trazado 209359" d="M2399.547,4460.347a28.91,28.91,0,0,0-3.132,5.036c-.209.473-.488.716-.979.55-.846-.29-1.9-.278-2.457-.991-.279-.357.46-.863.821-1.228A12.564,12.564,0,0,1,2399.547,4460.347Z" transform="translate(-2349.603 -4395.06)" fill="#fdbf60"/>
      <path id="Trazado_209360" data-name="Trazado 209360" d="M2433.844,4460.464a12.387,12.387,0,0,1,6.2,3.934c.412.465.487.7-.241,1.006-2.227.93-2.292.92-3.46-1.079C2435.616,4463.075,2434.774,4461.891,2433.844,4460.464Z" transform="translate(-2377.232 -4395.139)" fill="#fdbf60"/>
      <path id="Trazado_209361" data-name="Trazado 209361" d="M2440.108,4520.228a12.556,12.556,0,0,1-6.511,4.2,42.513,42.513,0,0,0,3.181-4.794c.266-.533.751-.261,1.14-.144C2438.574,4519.685,2439.219,4519.924,2440.108,4520.228Z" transform="translate(-2377.065 -4434.867)" fill="#fdad33"/>
      <path id="Trazado_209362" data-name="Trazado 209362" d="M2400.115,4524.8a11.758,11.758,0,0,1-5.662-3.434c-.207-.212-.438-.464-.089-.806a2.157,2.157,0,0,1,3.247.457C2398.363,4522.232,2399.185,4523.4,2400.115,4524.8Z" transform="translate(-2350.458 -4435.341)" fill="#fdad33"/>
      <path id="Trazado_209363" data-name="Trazado 209363" d="M2551.335,4421.743a37.948,37.948,0,0,1-8.854,20.759,51.459,51.459,0,0,1-6.25,6.337c-.614.531-1.151.913-1.953.219-8.23-7.121-14.056-15.594-15.277-26.722-.157-1.432.169-2.058,1.712-2.371a44.514,44.514,0,0,0,13.377-4.715,1.724,1.724,0,0,1,1.94-.084,44.254,44.254,0,0,0,13.679,4.824C2551.063,4420.265,2551.593,4420.827,2551.335,4421.743Z" transform="translate(-2434.696 -4364.383)" fill="#5038a1"/>
      <path id="Trazado_209364" data-name="Trazado 209364" d="M2510.051,4312.356a1.848,1.848,0,0,1-1.486-.6c-.832-.746-1.417-.616-1.408.56.01,1.4-.747,1.777-1.956,1.73-.432-.017-.865-.02-1.3,0-1.226.06-1.965-.372-1.978-1.735-.01-1.12-.508-1.451-1.384-.6-1.571,1.524-2.357.037-3.307-.822-.909-.823-1.6-1.665-.443-2.85.91-.932.614-1.471-.646-1.441-1.214.028-1.62-.654-1.669-1.71-.022-.484.009-.972,0-1.457-.037-1.258.328-2.091,1.819-2.059,1.019.023,1.317-.526.569-1.289-1.382-1.411-.356-2.285.6-3.227.9-.888,1.708-1.938,3.086-.6.793.769,1.4.612,1.385-.615-.014-1.279.678-1.715,1.852-1.659.539.025,1.081.021,1.621,0,1.092-.035,1.77.335,1.736,1.57s.514,1.572,1.442.683c1.011-.967,1.8-.686,2.607.218a10.873,10.873,0,0,0,.916.918c.915.809,1.156,1.6.2,2.6-.71.749-.632,1.418.6,1.4,1.293-.02,1.727.642,1.643,1.83a10.591,10.591,0,0,0,0,1.457c.085,1.229-.287,1.983-1.7,1.931-1.073-.038-1.262.554-.631,1.313.515.62,1.047,1.223.5,1.987A6.416,6.416,0,0,1,2510.051,4312.356Z" transform="translate(-2418.157 -4282.745)" fill="#5038a1"/>
      <path id="Trazado_209365" data-name="Trazado 209365" d="M2522.972,4425.664c-.331-.942.32-1.213,1.32-1.437a47.593,47.593,0,0,0,12.754-4.531,1.337,1.337,0,0,1,1.477.023,44.984,44.984,0,0,0,12.614,4.438c1.529.307,1.554,1.1,1.381,2.249a35.983,35.983,0,0,1-5.52,14.38,47.77,47.77,0,0,1-8.255,9.511c-.533.479-.928.912-1.728.2-7.106-6.372-12.241-13.886-13.885-23.472C2523.066,4426.65,2523.042,4426.272,2522.972,4425.664Z" transform="translate(-2437.341 -4367.474)" fill="#fefefe"/>
      <path id="Trazado_209366" data-name="Trazado 209366" d="M2514.115,4301.535c-.172.2-.358.386-.518.6a1.939,1.939,0,0,0,1.264,3.206c1.049.075,1.063.579,1.073,1.347.01.792-.062,1.251-1.088,1.327a1.92,1.92,0,0,0-1.2,3.221c.524.616.5.99-.082,1.436-.5.382-.783,1.188-1.717.491-1.5-1.124-3.123-.465-3.326,1.359-.113,1.011-.679.911-1.327.911s-1.22.092-1.328-.917a1.883,1.883,0,0,0-3.2-1.421c-.893.694-1.2.078-1.718-.356-.615-.518-.638-.912-.09-1.591a1.9,1.9,0,0,0-1.41-3.136c-1.09-.075-1.03-.656-1.029-1.388,0-.688,0-1.187.976-1.278a1.89,1.89,0,0,0,1.394-3.209c-.653-.792-.2-1.117.267-1.575s.786-.943,1.588-.306a1.9,1.9,0,0,0,3.215-1.365c.109-1,.659-.934,1.322-.928s1.21-.074,1.338.922c.233,1.831,1.748,2.375,3.367,1.282.422-.286.75-.425,1.117-.015C2513.391,4300.575,2513.963,4300.855,2514.115,4301.535Z" transform="translate(-2420.828 -4285.434)" fill="#b6abd8"/>
      <path id="Trazado_209367" data-name="Trazado 209367" d="M2552.158,4456.033a1.5,1.5,0,0,1-.994-.479c-1.928-1.475-3.843-2.966-5.789-4.416-.8-.593-.78-1.089-.163-1.852,2.4-2.973,1.606-2.838,4.552-.579,1.917,1.47,1.9,1.479,3.487-.409,1.388-1.652,2.811-3.274,4.183-4.938.626-.761,1.132-.866,1.781-.021,2.5,3.252,2.447,2.119.006,5.025-1.906,2.27-3.873,4.49-5.815,6.731C2553.058,4455.5,2552.783,4456,2552.158,4456.033Z" transform="translate(-2452.11 -4383.18)" fill="#523aa2"/>
      <path id="Trazado_209368" data-name="Trazado 209368" d="M2516.688,4320.19a4.254,4.254,0,1,1-.168-8.506,4.372,4.372,0,0,1,4.44,4.18A4.262,4.262,0,0,1,2516.688,4320.19Z" transform="translate(-2430.197 -4294.7)" fill="#523aa2"/>
      <path id="Trazado_209369" data-name="Trazado 209369" d="M2563.051,4449.895c-.2.275-.335.5-.5.694-2.07,2.406-4.155,4.8-6.21,7.22-.472.556-.89.676-1.488.206-1.439-1.129-2.9-2.234-4.356-3.34-.423-.322-.757-.61-.251-1.154.423-.454.758-.931,1.446-.358.785.655,1.664,1.2,2.413,1.894a1.331,1.331,0,0,0,2.276-.171c1.526-1.878,3.1-3.719,4.674-5.557.252-.294.493-.865,1.008-.531A5.766,5.766,0,0,1,2563.051,4449.895Z" transform="translate(-2455.638 -4387.194)" fill="#b6abd8"/>
      <path id="Trazado_209370" data-name="Trazado 209370" d="M2519.342,4321.594a2.966,2.966,0,1,1-.079-5.931,3.061,3.061,0,0,1,3.058,2.93A3,3,0,0,1,2519.342,4321.594Z" transform="translate(-2432.909 -4297.386)" fill="#fee5be"/>
    </g>
  </g>
</svg>
